<?xml version="1.0" encoding="UTF-8" standalone="no"?>
<!-- Created with Inkscape (http://www.inkscape.org/) -->

<svg
   xmlns:osb="http://www.openswatchbook.org/uri/2009/osb"
   xmlns:dc="http://purl.org/dc/elements/1.1/"
   xmlns:cc="http://creativecommons.org/ns#"
   xmlns:rdf="http://www.w3.org/1999/02/22-rdf-syntax-ns#"
   xmlns:svg="http://www.w3.org/2000/svg"
   xmlns="http://www.w3.org/2000/svg"
   xmlns:xlink="http://www.w3.org/1999/xlink"
   xmlns:sodipodi="http://sodipodi.sourceforge.net/DTD/sodipodi-0.dtd"
   xmlns:inkscape="http://www.inkscape.org/namespaces/inkscape"
   width="210mm"
   height="297mm"
   viewBox="0 0 210 297"
   version="1.1"
   id="svg8"
   inkscape:version="0.92.2 5c3e80d, 2017-08-06"
   sodipodi:docname="haploid-mixture.svg">
  <defs
     id="defs2">
    <marker
       inkscape:stockid="Arrow1Lend"
       orient="auto"
       refY="0.0"
       refX="0.0"
       id="marker1492"
       style="overflow:visible;"
       inkscape:isstock="true">
      <path
         id="path1490"
         d="M 0.0,0.0 L 5.0,-5.0 L -12.5,0.0 L 5.0,5.0 L 0.0,0.0 z "
         style="fill-rule:evenodd;stroke:#000000;stroke-width:1pt;stroke-opacity:1;fill:#000000;fill-opacity:1"
         transform="scale(0.8) rotate(180) translate(12.5,0)" />
    </marker>
    <marker
       inkscape:isstock="true"
       style="overflow:visible;"
       id="marker1366"
       refX="0.0"
       refY="0.0"
       orient="auto"
       inkscape:stockid="Arrow1Lend"
       inkscape:collect="always">
      <path
         transform="scale(0.8) rotate(180) translate(12.5,0)"
         style="fill-rule:evenodd;stroke:#000000;stroke-width:1pt;stroke-opacity:1;fill:#000000;fill-opacity:1"
         d="M 0.0,0.0 L 5.0,-5.0 L -12.5,0.0 L 5.0,5.0 L 0.0,0.0 z "
         id="path1364" />
    </marker>
    <marker
       inkscape:stockid="Arrow1Lend"
       orient="auto"
       refY="0.0"
       refX="0.0"
       id="marker1246"
       style="overflow:visible;"
       inkscape:isstock="true"
       inkscape:collect="always">
      <path
         id="path1244"
         d="M 0.0,0.0 L 5.0,-5.0 L -12.5,0.0 L 5.0,5.0 L 0.0,0.0 z "
         style="fill-rule:evenodd;stroke:#000000;stroke-width:1pt;stroke-opacity:1;fill:#000000;fill-opacity:1"
         transform="scale(0.8) rotate(180) translate(12.5,0)" />
    </marker>
    <marker
       inkscape:isstock="true"
       style="overflow:visible;"
       id="marker1186"
       refX="0.0"
       refY="0.0"
       orient="auto"
       inkscape:stockid="Arrow1Lend"
       inkscape:collect="always">
      <path
         transform="scale(0.8) rotate(180) translate(12.5,0)"
         style="fill-rule:evenodd;stroke:#000000;stroke-width:1pt;stroke-opacity:1;fill:#000000;fill-opacity:1"
         d="M 0.0,0.0 L 5.0,-5.0 L -12.5,0.0 L 5.0,5.0 L 0.0,0.0 z "
         id="path1184" />
    </marker>
    <marker
       inkscape:stockid="Arrow1Lend"
       orient="auto"
       refY="0.0"
       refX="0.0"
       id="marker1120"
       style="overflow:visible;"
       inkscape:isstock="true"
       inkscape:collect="always">
      <path
         id="path1118"
         d="M 0.0,0.0 L 5.0,-5.0 L -12.5,0.0 L 5.0,5.0 L 0.0,0.0 z "
         style="fill-rule:evenodd;stroke:#000000;stroke-width:1pt;stroke-opacity:1;fill:#000000;fill-opacity:1"
         transform="scale(0.8) rotate(180) translate(12.5,0)" />
    </marker>
    <marker
       inkscape:stockid="Arrow1Lend"
       orient="auto"
       refY="0.0"
       refX="0.0"
       id="Arrow1Lend"
       style="overflow:visible;"
       inkscape:isstock="true">
      <path
         id="path837"
         d="M 0.0,0.0 L 5.0,-5.0 L -12.5,0.0 L 5.0,5.0 L 0.0,0.0 z "
         style="fill-rule:evenodd;stroke:#000000;stroke-width:1pt;stroke-opacity:1;fill:#000000;fill-opacity:1"
         transform="scale(0.8) rotate(180) translate(12.5,0)" />
    </marker>
    <linearGradient
       id="linearGradient4532"
       osb:paint="solid">
      <stop
         style="stop-color:#000003;stop-opacity:1;"
         offset="0"
         id="stop4530" />
    </linearGradient>
    <linearGradient
       inkscape:collect="always"
       xlink:href="#linearGradient4532"
       id="linearGradient4534"
       x1="64.571804"
       y1="71.424515"
       x2="100.06623"
       y2="71.424515"
       gradientUnits="userSpaceOnUse"
       gradientTransform="matrix(0.38254802,0,0,0.38254802,39.869988,33.143157)" />
    <linearGradient
       inkscape:collect="always"
       xlink:href="#linearGradient4532"
       id="linearGradient4538"
       gradientUnits="userSpaceOnUse"
       gradientTransform="matrix(0.38254802,0,0,0.38254802,39.708821,91.985433)"
       x1="64.571804"
       y1="71.424515"
       x2="100.06623"
       y2="71.424515" />
    <linearGradient
       inkscape:collect="always"
       xlink:href="#linearGradient4532"
       id="linearGradient4542"
       gradientUnits="userSpaceOnUse"
       gradientTransform="matrix(0.38254802,0,0,0.38254802,89.772838,54.52472)"
       x1="64.571804"
       y1="71.424515"
       x2="100.06623"
       y2="71.424515" />
    <linearGradient
       inkscape:collect="always"
       xlink:href="#linearGradient4532"
       id="linearGradient4546"
       gradientUnits="userSpaceOnUse"
       gradientTransform="matrix(0.38254802,0,0,0.38254802,107.75376,19.77968)"
       x1="64.571804"
       y1="71.424515"
       x2="100.06623"
       y2="71.424515" />
    <linearGradient
       inkscape:collect="always"
       xlink:href="#linearGradient4532"
       id="linearGradient4552"
       gradientUnits="userSpaceOnUse"
       gradientTransform="matrix(0.38254802,0,0,0.38254802,19.020277,3.2089693)"
       x1="64.571804"
       y1="71.424515"
       x2="100.06623"
       y2="71.424515" />
    <linearGradient
       inkscape:collect="always"
       xlink:href="#linearGradient4532"
       id="linearGradient4556"
       gradientUnits="userSpaceOnUse"
       gradientTransform="matrix(0.38254802,0,0,0.38254802,72.850242,125.19132)"
       x1="64.571804"
       y1="71.424515"
       x2="100.06623"
       y2="71.424515" />
    <clipPath
       id="clipPath1659"
       clipPathUnits="userSpaceOnUse">
      <path
         inkscape:connector-curvature="0"
         id="path1657"
         d="m 0.162,0.306 h 126 v 268 h -126 z" />
    </clipPath>
    <clipPath
       id="clipPath1842"
       clipPathUnits="userSpaceOnUse">
      <path
         inkscape:connector-curvature="0"
         id="path1840"
         d="m 0.558,0.432 h 169 v 358 h -169 z" />
    </clipPath>
  </defs>
  <sodipodi:namedview
     id="base"
     pagecolor="#ffffff"
     bordercolor="#666666"
     borderopacity="1.0"
     inkscape:pageopacity="0.0"
     inkscape:pageshadow="2"
     inkscape:zoom="0.7"
     inkscape:cx="451.08194"
     inkscape:cy="708.54673"
     inkscape:document-units="mm"
     inkscape:current-layer="layer1"
     showgrid="false"
     showguides="true"
     inkscape:guide-bbox="true"
     inkscape:window-width="1440"
     inkscape:window-height="851"
     inkscape:window-x="0"
     inkscape:window-y="1"
     inkscape:window-maximized="1" />
  <metadata
     id="metadata5">
    <rdf:RDF>
      <cc:Work
         rdf:about="">
        <dc:format>image/svg+xml</dc:format>
        <dc:type
           rdf:resource="http://purl.org/dc/dcmitype/StillImage" />
        <dc:title></dc:title>
      </cc:Work>
    </rdf:RDF>
  </metadata>
  <g
     inkscape:label="Layer 1"
     inkscape:groupmode="layer"
     id="layer1">
    <path
       style="fill:none;fill-rule:evenodd;stroke:#000000;stroke-width:0.3175;stroke-linecap:butt;stroke-linejoin:miter;stroke-miterlimit:4;stroke-dasharray:none;stroke-opacity:1;marker-end:url(#marker1492)"
       d="m 72.117857,120.33392 26.836309,26.83631"
       id="path1548"
       inkscape:connector-curvature="0" />
    <path
       style="fill:none;fill-rule:evenodd;stroke:#000000;stroke-width:0.3175;stroke-linecap:butt;stroke-linejoin:miter;stroke-miterlimit:4;stroke-dasharray:none;stroke-opacity:1;marker-end:url(#marker1366)"
       d="M 121.33499,82.377197 106.10063,145.72008"
       id="path1356"
       inkscape:connector-curvature="0" />
    <path
       style="fill:none;fill-rule:evenodd;stroke:#000000;stroke-width:0.31813446;stroke-linecap:butt;stroke-linejoin:miter;stroke-miterlimit:4;stroke-dasharray:none;stroke-opacity:1;marker-end:url(#marker1246)"
       d="M 71.360322,61.533402 70.826494,112.04835"
       id="path1236"
       inkscape:connector-curvature="0" />
    <path
       style="fill:none;fill-rule:evenodd;stroke:#000000;stroke-width:0.3175;stroke-linecap:butt;stroke-linejoin:miter;stroke-miterlimit:4;stroke-dasharray:none;stroke-opacity:1;marker-end:url(#marker1186)"
       d="M 138.98015,48.439339 124.5476,75.968102"
       id="path1176"
       inkscape:connector-curvature="0" />
    <path
       style="fill:none;fill-rule:evenodd;stroke:#000000;stroke-width:0.3175;stroke-linecap:butt;stroke-linejoin:miter;stroke-miterlimit:4;stroke-dasharray:none;stroke-opacity:1;marker-end:url(#marker1120)"
       d="M 51.048478,31.601359 67.35192,55.121079"
       id="path1116"
       inkscape:connector-curvature="0" />
    <circle
       style="fill:#ffffff;fill-opacity:1;stroke:url(#linearGradient4534);stroke-width:0.5291667;stroke-miterlimit:4;stroke-dasharray:none;stroke-dashoffset:0;stroke-opacity:1"
       id="path4504"
       cx="71.360962"
       cy="60.466465"
       r="6.3390927" />
    <circle
       r="6.3390927"
       cy="119.3087"
       cx="71.199806"
       id="circle4536"
       style="fill:#ffffff;fill-opacity:1;stroke:url(#linearGradient4538);stroke-width:0.5291667;stroke-miterlimit:4;stroke-dasharray:none;stroke-dashoffset:0;stroke-opacity:1" />
    <circle
       style="fill:#ffffff;fill-opacity:1;stroke:url(#linearGradient4542);stroke-width:0.5291667;stroke-miterlimit:4;stroke-dasharray:none;stroke-dashoffset:0;stroke-opacity:1"
       id="circle4540"
       cx="121.26382"
       cy="81.84803"
       r="6.3390927" />
    <circle
       r="6.3390927"
       cy="47.102989"
       cx="139.24475"
       id="circle4544"
       style="fill:#dcdcdc;fill-opacity:1;stroke:url(#linearGradient4546);stroke-width:0.5291667;stroke-miterlimit:4;stroke-dasharray:none;stroke-dashoffset:0;stroke-opacity:1" />
    <circle
       style="fill:#dcdcdc;fill-opacity:1;stroke:url(#linearGradient4552);stroke-width:0.5291667;stroke-miterlimit:4;stroke-dasharray:none;stroke-dashoffset:0;stroke-opacity:1"
       id="circle4550"
       cx="50.511269"
       cy="30.532278"
       r="6.3390927" />
    <circle
       style="fill:#000000;fill-opacity:1;stroke:url(#linearGradient4556);stroke-width:0.5291667;stroke-miterlimit:4;stroke-dasharray:none;stroke-dashoffset:0;stroke-opacity:1"
       id="circle4554"
       cx="104.34122"
       cy="152.5146"
       r="6.3390927" />
    <rect
       style="fill:none;fill-opacity:0.98431373;stroke:#040404;stroke-width:2.35299993;stroke-miterlimit:4;stroke-dasharray:none;stroke-dashoffset:0;stroke-opacity:0"
       id="rect4560"
       width="47.573978"
       height="8.5526247"
       x="115.99498"
       y="127.55112" />
    <rect
       style="opacity:1;fill:none;fill-opacity:1;stroke:#000000;stroke-width:0.5505479;stroke-miterlimit:4;stroke-dasharray:none;stroke-dashoffset:0;stroke-opacity:1"
       id="rect4562"
       width="112.16905"
       height="80.715393"
       x="28.949251"
       y="101.37481" />
    <rect
       y="60.848064"
       x="91.91465"
       height="144.59953"
       width="89.822472"
       id="rect4572"
       style="opacity:1;fill:none;fill-opacity:1;stroke:#000000;stroke-width:0.73532557;stroke-miterlimit:4;stroke-dasharray:none;stroke-dashoffset:0;stroke-opacity:1" />
    <path
       d="m 118.11343,151.53014 -0.9465,-2.24226 c -0.0335,-0.09 -0.0564,-0.13511 -0.0564,-0.14605 0,-0.0681 0.19192,-0.28187 0.66499,-0.32702 0.11289,-0.0116 0.22543,-0.0226 0.22543,-0.21449 0,-0.13512 -0.13512,-0.13512 -0.16934,-0.13512 -0.46178,0 -0.9465,0.0339 -1.41922,0.0339 -0.28187,0 -0.98072,-0.0339 -1.26224,-0.0339 -0.0681,0 -0.20285,0 -0.20285,0.22543 0,0.12418 0.11289,0.12418 0.25894,0.12418 0.67628,0 0.74401,0.11253 0.8449,0.36054 l 1.33033,3.1436 -2.37808,2.55799 -0.14605,0.12347 c -0.55245,0.59761 -1.08197,0.77788 -1.65629,0.81139 -0.14675,0.0116 -0.248,0.0116 -0.248,0.22543 0,0.0116 0,0.12417 0.1464,0.12417 0.33796,0 0.71014,-0.0335 1.05904,-0.0335 0.41734,0 0.85654,0.0335 1.26224,0.0335 0.067,0 0.20285,0 0.20285,-0.22542 0,-0.11254 -0.11289,-0.12418 -0.13582,-0.12418 -0.10125,-0.0109 -0.45015,-0.0335 -0.45015,-0.3489 0,-0.18026 0.16863,-0.36089 0.3041,-0.50694 l 1.14935,-1.21708 1.01423,-1.10419 1.13771,2.69275 c 0.0452,0.12382 0.0564,0.13546 0.0564,0.15769 0,0.0903 -0.21414,0.28222 -0.65335,0.32667 -0.12418,0.0116 -0.22542,0.0226 -0.22542,0.21449 0,0.13511 0.12417,0.13511 0.16933,0.13511 0.31503,0 1.10384,-0.0335 1.41922,-0.0335 0.28187,0 0.96909,0.0335 1.2506,0.0335 0.079,0 0.21449,0 0.21449,-0.21378 0,-0.13582 -0.11289,-0.13582 -0.20285,-0.13582 -0.75494,-0.0109 -0.77752,-0.0445 -0.96908,-0.4953 -0.43991,-1.0481 -1.1945,-2.80564 -1.45344,-3.48227 0.76623,-0.78881 1.9491,-2.12936 2.30963,-2.4451 0.32668,-0.27023 0.7553,-0.54081 1.43087,-0.57432 0.14676,-0.0116 0.248,-0.0116 0.248,-0.22543 0,-0.0109 0,-0.12418 -0.1464,-0.12418 -0.33796,0 -0.70943,0.0339 -1.05904,0.0339 -0.41663,0 -0.8449,-0.0339 -1.25059,-0.0339 -0.0677,0 -0.21449,0 -0.21449,0.22543 0,0.079 0.0568,0.11254 0.13546,0.12418 0.1016,0.0109 0.4505,0.0335 0.4505,0.34889 0,0.15805 -0.12347,0.30445 -0.21378,0.4057 l -1.82563,1.96074"
       style="fill:#000000;fill-opacity:1;fill-rule:nonzero;stroke:none;stroke-width:0.35277778"
       id="path1844"
       inkscape:connector-curvature="0" />
    <path
       d="m 124.51247,152.93525 c 0,-0.12629 -0.0949,-0.29951 -0.31468,-0.29951 -0.21308,0 -0.44097,0.20497 -0.44097,0.43321 0,0.13335 0.1023,0.29881 0.31468,0.29881 0.22824,0 0.44097,-0.21978 0.44097,-0.43251 z m -1.60585,3.99838 c -0.0317,0.10266 -0.0709,0.19685 -0.0709,0.33091 0,0.36971 0.31467,0.66887 0.74788,0.66887 0.78705,0 1.13313,-1.08621 1.13313,-1.20439 0,-0.1023 -0.10231,-0.1023 -0.12559,-0.1023 -0.11007,0 -0.11854,0.0473 -0.14993,0.1337 -0.18063,0.62971 -0.52741,0.9525 -0.83397,0.9525 -0.15769,0 -0.19685,-0.1023 -0.19685,-0.27552 0,-0.18062 0.0547,-0.33055 0.12594,-0.50377 0.0787,-0.21237 0.1651,-0.42509 0.25188,-0.62935 0.0709,-0.18909 0.35419,-0.90523 0.38559,-1.00013 0.024,-0.0787 0.0469,-0.17286 0.0469,-0.25188 0,-0.36971 -0.31468,-0.66922 -0.74754,-0.66922 -0.77928,0 -1.14158,1.07104 -1.14158,1.20439 0,0.10265 0.11042,0.10265 0.13405,0.10265 0.11042,0 0.11818,-0.0392 0.14182,-0.12629 0.20426,-0.67698 0.55104,-0.96026 0.84208,-0.96026 0.12559,0 0.19685,0.0635 0.19685,0.27587 0,0.18133 -0.0473,0.29916 -0.24412,0.78705 l -0.49566,1.26717"
       style="fill:#000000;fill-opacity:1;fill-rule:nonzero;stroke:none;stroke-width:0.35277778"
       id="path1846"
       inkscape:connector-curvature="0" />
    <path
       d="m 126.83304,157.72915 c 0,0.4325 -0.079,0.93627 -0.61419,1.44039 -0.0314,0.0314 -0.055,0.055 -0.055,0.0942 0,0.055 0.0635,0.11007 0.11007,0.11007 0.11042,0 0.77964,-0.62936 0.77964,-1.56634 0,-0.48789 -0.18909,-0.85795 -0.5514,-0.85795 -0.25964,0 -0.44873,0.20461 -0.44873,0.44873 0,0.25188 0.18168,0.4565 0.4572,0.4565 0.18838,0 0.31468,-0.12559 0.32244,-0.12559"
       style="fill:#000000;fill-opacity:1;fill-rule:nonzero;stroke:none;stroke-width:0.35277778"
       id="path1848"
       inkscape:connector-curvature="0" />
    <path
       d="m 129.66796,156.26442 c 0.008,-0.0469 0.18909,-0.75495 0.20426,-0.79481 0.0162,-0.0628 0.24448,-0.4565 0.49636,-0.64559 0.0864,-0.0628 0.2988,-0.22048 0.63712,-0.22048 0.0787,0 0.27551,0.008 0.43321,0.11042 -0.25189,0.0709 -0.34608,0.29139 -0.34608,0.43321 0,0.17321 0.13335,0.29104 0.31468,0.29104 0.18097,0 0.44027,-0.14922 0.44027,-0.48013 0,-0.40958 -0.43251,-0.57503 -0.83397,-0.57503 -0.40958,0 -0.76341,0.16545 -1.10984,0.55915 -0.14182,-0.48013 -0.62195,-0.55915 -0.81104,-0.55915 -0.29104,0 -0.48789,0.18133 -0.61348,0.40182 -0.18132,0.30727 -0.29174,0.76341 -0.29174,0.80257 0,0.10265 0.11042,0.10265 0.13405,0.10265 0.11042,0 0.11818,-0.0236 0.17322,-0.236 0.11782,-0.48049 0.26775,-0.85055 0.57467,-0.85055 0.20461,0 0.25965,0.17321 0.25965,0.38594 0,0.14957 -0.0709,0.44097 -0.12595,0.65334 -0.0554,0.21273 -0.1337,0.53517 -0.17321,0.70873 l -0.25188,1.00718 c -0.0314,0.10231 -0.079,0.29916 -0.079,0.32279 0,0.17322 0.14182,0.25189 0.26812,0.25189 0.11782,0 0.27551,-0.0709 0.33831,-0.2279 0.0155,-0.0476 0.10266,-0.3937 0.14958,-0.59055 l 0.21272,-0.85054"
       style="fill:#000000;fill-opacity:1;fill-rule:nonzero;stroke:none;stroke-width:0.35277778"
       id="path1850"
       inkscape:connector-curvature="0" />
    <path
       d="m 58.828726,112.30427 c 0.0116,-0.0455 0.0342,-0.1016 0.0342,-0.16933 0,-0.1016 -0.0568,-0.1016 -0.28187,-0.1016 h -4.75509 c -0.27093,0 -0.28187,0.0116 -0.3496,0.22543 l -0.61948,2.02811 c -0.0226,0.0568 -0.0339,0.13547 -0.0339,0.15805 0,0.0113 0,0.12418 0.13512,0.12418 0.1016,0 0.12417,-0.0794 0.14675,-0.11289 0.42827,-1.32962 1.01353,-2.07328 2.77142,-2.07328 h 1.83727 l -6.2992,7.04215 c 0,0.0116 -0.0448,0.16934 -0.0448,0.20285 0,0.1016 0.079,0.1016 0.28187,0.1016 h 4.90114 c 0.27093,0 0.28187,-0.0109 0.3496,-0.22543 l 0.79975,-2.49025 c 0.0116,-0.0448 0.0452,-0.12348 0.0452,-0.16898 0,-0.0561 -0.0452,-0.12383 -0.1464,-0.12383 -0.1016,0 -0.11254,0.0451 -0.19156,0.28152 -0.496,1.53246 -1.03681,2.34385 -2.95204,2.34385 h -1.92723 l 6.29885,-7.04215"
       style="fill:#000000;fill-opacity:1;fill-rule:nonzero;stroke:none;stroke-width:0.35277778"
       id="path1852"
       inkscape:connector-curvature="0" />
    <path
       d="m 60.921756,116.50339 c 0,-0.1263 -0.0949,-0.29951 -0.31468,-0.29951 -0.21307,0 -0.44097,0.20496 -0.44097,0.43321 0,0.13335 0.10231,0.2988 0.31468,0.2988 0.22825,0 0.44097,-0.21978 0.44097,-0.4325 z m -1.60584,3.99838 c -0.0317,0.10266 -0.0709,0.19685 -0.0709,0.33091 0,0.36971 0.31468,0.66886 0.74789,0.66886 0.78704,0 1.13312,-1.0862 1.13312,-1.20438 0,-0.10231 -0.10231,-0.10231 -0.12559,-0.10231 -0.11007,0 -0.11853,0.0473 -0.14993,0.13371 -0.18062,0.6297 -0.5274,0.9525 -0.83397,0.9525 -0.15769,0 -0.19685,-0.10231 -0.19685,-0.27552 0,-0.18063 0.0547,-0.33056 0.12594,-0.50377 0.0787,-0.21237 0.1651,-0.4251 0.25189,-0.62936 0.0709,-0.18908 0.35419,-0.90522 0.38558,-1.00012 0.024,-0.0787 0.0469,-0.17286 0.0469,-0.25188 0,-0.36971 -0.31467,-0.66922 -0.74753,-0.66922 -0.77929,0 -1.14159,1.07103 -1.14159,1.20438 0,0.10266 0.11042,0.10266 0.13405,0.10266 0.11042,0 0.11818,-0.0392 0.14182,-0.1263 0.20426,-0.67698 0.55104,-0.96026 0.84208,-0.96026 0.12559,0 0.19685,0.0635 0.19685,0.27588 0,0.18132 -0.0473,0.29915 -0.24412,0.78704 l -0.49565,1.26718"
       style="fill:#000000;fill-opacity:1;fill-rule:nonzero;stroke:none;stroke-width:0.35277778"
       id="path1854"
       inkscape:connector-curvature="0" />
    <path
       d="m 34.402611,170.74922 c 0,-0.22543 -0.15822,-0.4057 -0.41727,-0.4057 -0.30427,0 -0.60854,0.29281 -0.60854,0.59726 0,0.21413 0.15819,0.40569 0.42828,0.40569 0.25908,0 0.59753,-0.25929 0.59753,-0.59725 z m -0.85658,4.23686 c 0.13504,-0.32703 0.13504,-0.3496 0.24804,-0.6537 0.0898,-0.22542 0.14605,-0.38311 0.14605,-0.5969 0,-0.50729 -0.36047,-0.92392 -0.92382,-0.92392 -1.0589,0 -1.48717,1.63371 -1.48717,1.73531 0,0.11218 0.11243,0.11218 0.13504,0.11218 0.113,0 0.124,-0.0226 0.18024,-0.20284 0.30427,-1.05869 0.75515,-1.39736 1.13827,-1.39736 0.0899,0 0.28166,0 0.28166,0.36054 0,0.23707 -0.0788,0.47343 -0.124,0.58597 -0.0904,0.29316 -0.59697,1.6002 -0.77724,2.08491 -0.113,0.29316 -0.25961,0.66464 -0.25961,0.9017 0,0.52917 0.38308,0.92393 0.92438,0.92393 1.0589,0 1.47616,-1.63407 1.47616,-1.73531 0,-0.11325 -0.10142,-0.11325 -0.1356,-0.11325 -0.11243,0 -0.11243,0.0342 -0.16867,0.20285 -0.20284,0.71014 -0.57492,1.39735 -1.14984,1.39735 -0.19128,0 -0.27009,-0.11218 -0.27009,-0.37147 0,-0.28222 0.0678,-0.43992 0.32685,-1.12713 l 0.43935,-1.18286"
       style="fill:#000000;fill-opacity:1;fill-rule:nonzero;stroke:none;stroke-width:0.35277778"
       id="path1856"
       inkscape:connector-curvature="0" />
    <path
       d="m 45.963811,174.10696 c 0.16866,0 0.38308,0 0.38308,-0.22507 0,-0.22543 -0.21442,-0.22543 -0.37208,-0.22543 h -6.74962 c -0.15766,0 -0.37151,0 -0.37151,0.22543 0,0.22507 0.21385,0.22507 0.38308,0.22507 z m 0.011,2.18616 c 0.15766,0 0.37208,0 0.37208,-0.22578 0,-0.22472 -0.21442,-0.22472 -0.38308,-0.22472 h -6.72705 c -0.16923,0 -0.38308,0 -0.38308,0.22472 0,0.22578 0.21385,0.22578 0.37151,0.22578 h 6.74962"
       style="fill:#000000;fill-opacity:1;fill-rule:nonzero;stroke:none;stroke-width:0.35277778"
       id="path1858"
       inkscape:connector-curvature="0" />
    <path
       d="m 53.388651,170.58024 c 0,-0.27058 0,-0.29281 -0.25904,-0.29281 -0.69896,0.72108 -1.69059,0.72108 -2.05109,0.72108 v 0.34925 c 0.22546,0 0.8902,0 1.47616,-0.29316 v 5.83706 c 0,0.4057 -0.0336,0.54046 -1.04785,0.54046 h -0.3605 v 0.3496 c 0.39412,-0.0335 1.37473,-0.0335 1.82562,-0.0335 0.45032,0 1.43094,0 1.82506,0.0335 v -0.3496 h -0.3605 c -1.01424,0 -1.04786,-0.12383 -1.04786,-0.54046 v -6.32142"
       style="fill:#000000;fill-opacity:1;fill-rule:nonzero;stroke:none;stroke-width:0.35277778"
       id="path1860"
       inkscape:connector-curvature="0" />
    <path
       d="m 58.007851,177.78079 c 0,-0.74437 -0.28169,-1.18357 -0.72153,-1.18357 -0.37155,0 -0.59697,0.28151 -0.59697,0.5976 0,0.3041 0.22542,0.5969 0.59697,0.5969 0.13557,0 0.28165,-0.0452 0.39465,-0.14675 0.0336,-0.0226 0.0452,-0.0335 0.0562,-0.0335 0.0116,0 0.0226,0.0109 0.0226,0.16933 0,0.83326 -0.39412,1.50954 -0.76619,1.88136 -0.12404,0.12383 -0.12404,0.14641 -0.12404,0.17992 0,0.0794 0.0562,0.12418 0.11299,0.12418 0.12348,0 1.02528,-0.86748 1.02528,-2.18546"
       style="fill:#000000;fill-opacity:1;fill-rule:nonzero;stroke:none;stroke-width:0.35277778"
       id="path1862"
       inkscape:connector-curvature="0" />
    <path
       d="m 62.857981,177.19482 c 0,-0.32702 -0.27065,-0.5976 -0.5975,-0.5976 -0.32632,0 -0.59697,0.27058 -0.59697,0.5976 0,0.32632 0.27065,0.5969 0.59697,0.5969 0.32685,0 0.5975,-0.27058 0.5975,-0.5969"
       style="fill:#000000;fill-opacity:1;fill-rule:nonzero;stroke:none;stroke-width:0.35277778"
       id="path1864"
       inkscape:connector-curvature="0" />
    <path
       d="m 67.867501,177.19482 c 0,-0.32702 -0.27058,-0.5976 -0.59761,-0.5976 -0.32632,0 -0.5969,0.27058 -0.5969,0.5976 0,0.32632 0.27058,0.5969 0.5969,0.5969 0.32703,0 0.59761,-0.27058 0.59761,-0.5969"
       style="fill:#000000;fill-opacity:1;fill-rule:nonzero;stroke:none;stroke-width:0.35277778"
       id="path1866"
       inkscape:connector-curvature="0" />
    <path
       d="m 72.876941,177.19482 c 0,-0.32702 -0.27058,-0.5976 -0.5976,-0.5976 -0.32632,0 -0.5969,0.27058 -0.5969,0.5976 0,0.32632 0.27058,0.5969 0.5969,0.5969 0.32702,0 0.5976,-0.27058 0.5976,-0.5969"
       style="fill:#000000;fill-opacity:1;fill-rule:nonzero;stroke:none;stroke-width:0.35277778"
       id="path1868"
       inkscape:connector-curvature="0" />
    <path
       d="m 78.010211,177.78079 c 0,-0.74437 -0.28152,-1.18357 -0.72143,-1.18357 -0.37147,0 -0.5969,0.28151 -0.5969,0.5976 0,0.3041 0.22543,0.5969 0.5969,0.5969 0.13547,0 0.28187,-0.0452 0.39476,-0.14675 0.0335,-0.0226 0.0451,-0.0335 0.0561,-0.0335 0.0116,0 0.0226,0.0109 0.0226,0.16933 0,0.83326 -0.39405,1.50954 -0.76623,1.88136 -0.12383,0.12383 -0.12383,0.14641 -0.12383,0.17992 0,0.0794 0.0561,0.12418 0.11289,0.12418 0.12347,0 1.02517,-0.86748 1.02517,-2.18546"
       style="fill:#000000;fill-opacity:1;fill-rule:nonzero;stroke:none;stroke-width:0.35277778"
       id="path1870"
       inkscape:connector-curvature="0" />
    <path
       d="m 81.688621,177.12709 c -0.0335,0.16898 -0.1016,0.42827 -0.1016,0.48436 0,0.20285 0.1577,0.30445 0.32703,0.30445 0.13511,0 0.33796,-0.0907 0.41663,-0.31609 0.0116,-0.0219 0.14676,-0.55174 0.21414,-0.83326 l 0.248,-1.01424 c 0.0677,-0.248 0.13547,-0.49565 0.19156,-0.75529 0.0455,-0.19121 0.13511,-0.51823 0.14605,-0.56339 0.16933,-0.3489 0.76694,-1.37478 1.83726,-1.37478 0.50659,0 0.60819,0.41734 0.60819,0.78882 0,0.6992 -0.55174,2.141 -0.73201,2.62537 -0.1016,0.25929 -0.11324,0.39476 -0.11324,0.51893 0,0.52917 0.39476,0.92393 0.92463,0.92393 1.05868,0 1.47567,-1.64571 1.47567,-1.73531 0,-0.11325 -0.1016,-0.11325 -0.13512,-0.11325 -0.11253,0 -0.11253,0.0342 -0.16933,0.20285 -0.22472,0.76623 -0.5969,1.39735 -1.14935,1.39735 -0.19121,0 -0.26987,-0.11218 -0.26987,-0.37147 0,-0.28222 0.10124,-0.5521 0.20284,-0.8001 0.21379,-0.59725 0.68721,-1.83692 0.68721,-2.47897 0,-0.7553 -0.48436,-1.20544 -1.29575,-1.20544 -1.01424,0 -1.56669,0.72108 -1.75789,0.98001 -0.0564,-0.63112 -0.51823,-0.98001 -1.03681,-0.98001 -0.51824,0 -0.73202,0.43921 -0.84526,0.64205 -0.18027,0.38312 -0.33761,1.04775 -0.33761,1.09326 0,0.11218 0.11218,0.11218 0.13476,0.11218 0.11324,0 0.12418,-0.0109 0.19191,-0.25893 0.19121,-0.79975 0.41663,-1.34127 0.82233,-1.34127 0.22542,0 0.3496,0.14676 0.3496,0.51894 0,0.23636 -0.0342,0.36054 -0.18027,0.94615 l -0.6537,2.60315"
       style="fill:#000000;fill-opacity:1;fill-rule:nonzero;stroke:none;stroke-width:0.35277778"
       id="path1872"
       inkscape:connector-curvature="0" />
    <path
       d="m 119.89948,201.17141 c -0.0336,0.16899 -0.10143,0.42828 -0.10143,0.48437 0,0.20285 0.15765,0.30445 0.32687,0.30445 0.13505,0 0.3379,-0.0907 0.41672,-0.31609 0.0226,-0.0444 0.4057,-1.57692 0.4509,-1.77977 0.0898,-0.37218 0.29269,-1.16099 0.36049,-1.46508 0.0452,-0.14676 0.3605,-0.67593 0.63114,-0.92393 0.0899,-0.0787 0.41672,-0.37218 0.90124,-0.37218 0.29326,0 0.46193,0.13582 0.4735,0.13582 -0.33846,0.0561 -0.58593,0.32632 -0.58593,0.61948 0,0.18027 0.12347,0.39405 0.42774,0.39405 0.30427,0 0.62011,-0.25894 0.62011,-0.66463 0,-0.39406 -0.3605,-0.73202 -0.93542,-0.73202 -0.73257,0 -1.22811,0.55175 -1.44253,0.86748 -0.0898,-0.50694 -0.49554,-0.86748 -1.02526,-0.86748 -0.51814,0 -0.73202,0.43921 -0.83344,0.64206 -0.20285,0.38312 -0.34947,1.05904 -0.34947,1.09326 0,0.11218 0.11245,0.11218 0.13505,0.11218 0.113,0 0.12402,-0.0109 0.19182,-0.25894 0.19127,-0.79975 0.41672,-1.34126 0.82242,-1.34126 0.19126,0 0.34946,0.0907 0.34946,0.51894 0,0.23636 -0.0342,0.36054 -0.18024,0.94615 l -0.65374,2.60314"
       style="fill:#000000;fill-opacity:1;fill-rule:nonzero;stroke:none;stroke-width:0.35277778"
       id="path1874"
       inkscape:connector-curvature="0" />
    <path
       d="m 135.18635,198.15128 c 0.16866,0 0.38308,0 0.38308,-0.22507 0,-0.22542 -0.21442,-0.22542 -0.37208,-0.22542 h -6.74962 c -0.15766,0 -0.37151,0 -0.37151,0.22542 0,0.22507 0.21385,0.22507 0.38308,0.22507 z m 0.011,2.18617 c 0.15766,0 0.37208,0 0.37208,-0.22578 0,-0.22472 -0.21442,-0.22472 -0.38308,-0.22472 h -6.72705 c -0.16923,0 -0.38308,0 -0.38308,0.22472 0,0.22578 0.21385,0.22578 0.37151,0.22578 h 6.74962"
       style="fill:#000000;fill-opacity:1;fill-rule:nonzero;stroke:none;stroke-width:0.35277778"
       id="path1876"
       inkscape:connector-curvature="0" />
    <path
       d="m 142.61119,194.62456 c 0,-0.27058 0,-0.2928 -0.25905,-0.2928 -0.69895,0.72108 -1.69058,0.72108 -2.05108,0.72108 v 0.34925 c 0.22546,0 0.8902,0 1.47616,-0.29316 v 5.83706 c 0,0.40569 -0.0336,0.54046 -1.04785,0.54046 h -0.36051 v 0.3496 c 0.39413,-0.0335 1.37474,-0.0335 1.82563,-0.0335 0.45032,0 1.43094,0 1.82506,0.0335 v -0.3496 h -0.36051 c -1.01423,0 -1.04785,-0.12383 -1.04785,-0.54046 v -6.32143"
       style="fill:#000000;fill-opacity:1;fill-rule:nonzero;stroke:none;stroke-width:0.35277778"
       id="path1878"
       inkscape:connector-curvature="0" />
    <path
       d="m 147.23039,201.82511 c 0,-0.74436 -0.28169,-1.18357 -0.72154,-1.18357 -0.37154,0 -0.59697,0.28152 -0.59697,0.59761 0,0.30409 0.22543,0.5969 0.59697,0.5969 0.13558,0 0.28166,-0.0452 0.39466,-0.14676 0.0336,-0.0226 0.0452,-0.0335 0.0562,-0.0335 0.0116,0 0.0226,0.0109 0.0226,0.16933 0,0.83326 -0.39412,1.50954 -0.7662,1.88137 -0.12403,0.12382 -0.12403,0.1464 -0.12403,0.17991 0,0.0794 0.0562,0.12418 0.11299,0.12418 0.12347,0 1.02528,-0.86748 1.02528,-2.18546"
       style="fill:#000000;fill-opacity:1;fill-rule:nonzero;stroke:none;stroke-width:0.35277778"
       id="path1880"
       inkscape:connector-curvature="0" />
    <path
       d="m 152.08052,201.23915 c 0,-0.32703 -0.27065,-0.59761 -0.5975,-0.59761 -0.32632,0 -0.59697,0.27058 -0.59697,0.59761 0,0.32632 0.27065,0.5969 0.59697,0.5969 0.32685,0 0.5975,-0.27058 0.5975,-0.5969"
       style="fill:#000000;fill-opacity:1;fill-rule:nonzero;stroke:none;stroke-width:0.35277778"
       id="path1882"
       inkscape:connector-curvature="0" />
    <path
       d="m 157.09004,201.23915 c 0,-0.32703 -0.27059,-0.59761 -0.59761,-0.59761 -0.32632,0 -0.5969,0.27058 -0.5969,0.59761 0,0.32632 0.27058,0.5969 0.5969,0.5969 0.32702,0 0.59761,-0.27058 0.59761,-0.5969"
       style="fill:#000000;fill-opacity:1;fill-rule:nonzero;stroke:none;stroke-width:0.35277778"
       id="path1884"
       inkscape:connector-curvature="0" />
    <path
       d="m 162.09948,201.23915 c 0,-0.32703 -0.27058,-0.59761 -0.59761,-0.59761 -0.32632,0 -0.5969,0.27058 -0.5969,0.59761 0,0.32632 0.27058,0.5969 0.5969,0.5969 0.32703,0 0.59761,-0.27058 0.59761,-0.5969"
       style="fill:#000000;fill-opacity:1;fill-rule:nonzero;stroke:none;stroke-width:0.35277778"
       id="path1886"
       inkscape:connector-curvature="0" />
    <path
       d="m 167.19747,201.82511 c 0,-0.74436 -0.28152,-1.18357 -0.72143,-1.18357 -0.37147,0 -0.5969,0.28152 -0.5969,0.59761 0,0.30409 0.22543,0.5969 0.5969,0.5969 0.13547,0 0.28187,-0.0452 0.39476,-0.14676 0.0335,-0.0226 0.0451,-0.0335 0.0561,-0.0335 0.0116,0 0.0226,0.0109 0.0226,0.16933 0,0.83326 -0.39405,1.50954 -0.76623,1.88137 -0.12383,0.12382 -0.12383,0.1464 -0.12383,0.17991 0,0.0794 0.0561,0.12418 0.11289,0.12418 0.12347,0 1.02517,-0.86748 1.02517,-2.18546"
       style="fill:#000000;fill-opacity:1;fill-rule:nonzero;stroke:none;stroke-width:0.35277778"
       id="path1888"
       inkscape:connector-curvature="0" />
    <path
       d="m 174.14508,194.91772 c 0.0674,-0.27058 0.1016,-0.38311 0.31538,-0.41733 0.10125,-0.0109 0.46179,-0.0109 0.68721,-0.0109 0.8001,0 2.05105,0 2.05105,1.11548 0,0.38312 -0.18062,1.16064 -0.61983,1.59985 -0.29281,0.29315 -0.89041,0.65369 -1.90394,0.65369 h -1.26224 z m 1.62242,3.08751 c 1.13806,-0.24835 2.47932,-1.03681 2.47932,-2.17522 0,-0.96909 -1.01423,-1.69016 -2.49061,-1.69016 h -3.21133 c -0.22543,0 -0.32668,0 -0.32668,0.22542 0,0.12418 0.10125,0.12418 0.31574,0.12418 0.0219,0 0.23636,0 0.42757,0.0226 0.20284,0.0226 0.30444,0.0335 0.30444,0.18027 0,0.0452 -0.0109,0.0787 -0.0448,0.21378 l -1.51024,6.0512 c -0.11254,0.43956 -0.13511,0.52917 -1.02517,0.52917 -0.20285,0 -0.30445,0 -0.30445,0.22542 0,0.12418 0.13511,0.12418 0.15769,0.12418 0.31609,0 1.1049,-0.0335 1.41993,-0.0335 0.31539,0 1.11584,0.0335 1.43122,0.0335 0.0903,0 0.22543,0 0.22543,-0.22543 0,-0.12417 -0.1016,-0.12417 -0.31539,-0.12417 -0.41733,0 -0.73272,0 -0.73272,-0.20285 0,-0.067 0.0226,-0.12383 0.0339,-0.19121 l 0.7433,-2.98591 h 1.34126 c 1.02518,0 1.22802,0.63077 1.22802,1.02517 0,0.16934 -0.0896,0.51823 -0.15769,0.77717 -0.0787,0.31609 -0.18027,0.73272 -0.18027,0.95815 0,1.21708 1.3522,1.21708 1.49896,1.21708 0.95743,0 1.35219,-1.13806 1.35219,-1.29575 0,-0.13512 -0.12417,-0.13512 -0.13582,-0.13512 -0.10124,0 -0.12347,0.0787 -0.14605,0.1577 -0.28151,0.83326 -0.76623,1.02517 -1.02587,1.02517 -0.37148,0 -0.45015,-0.248 -0.45015,-0.68721 0,-0.34961 0.067,-0.92393 0.11254,-1.28447 0.0226,-0.15839 0.0452,-0.37218 0.0452,-0.52987 0,-0.86748 -0.75529,-1.21708 -1.05939,-1.32927"
       style="fill:#000000;fill-opacity:1;fill-rule:nonzero;stroke:none;stroke-width:0.35277778"
       id="path1890"
       inkscape:connector-curvature="0" />
    <path
       d="m 135.21328,80.016083 h 1.99425 c 2.07363,0 3.49285,-1.26224 3.49285,-2.59186 0,-1.14935 -1.0361,-1.73531 -2.52377,-1.73531 h -4.33811 c -0.21413,0 -0.41698,0 -0.41698,0.32702 0,0.20285 0.15769,0.20285 0.47308,0.20285 0.23706,0 0.45085,0.0109 0.68721,0.0219 l -1.61114,6.42268 c -0.0451,0.18027 -0.0561,0.19191 -0.25894,0.21449 -0.19191,0.0109 -0.41663,0.0109 -0.5976,0.0109 -0.29281,0 -0.31539,0 -0.3489,0.0342 -0.14676,0.0674 -0.14676,0.23671 -0.14676,0.29281 0,0.0109 0,0.20284 0.24836,0.20284 0.28152,0 0.57432,-0.0226 0.85584,-0.0226 0.28187,0 0.57503,-0.0109 0.85654,-0.0109 0.29281,0 0.58597,0.0109 0.86784,0.0109 0.29245,0 0.5969,0.0226 0.87841,0.0226 0.11324,0 0.32703,0 0.32703,-0.31538 0,-0.21449 -0.13512,-0.21449 -0.46214,-0.21449 -0.23636,0 -0.45085,-0.0109 -0.68721,-0.0226 z m 0.83397,-3.59516 c 0.0451,-0.16862 0.0561,-0.18027 0.12382,-0.1912 0.1016,-0.0109 0.18027,-0.0109 0.30445,-0.0109 h 1.17193 c 0.63041,0 1.47531,0.11219 1.47531,0.88935 0,0.13582 -0.14605,1.28517 -0.56338,1.82563 -0.23636,0.30445 -0.74331,0.61983 -1.75754,0.61983 h -1.5434 l 0.78881,-3.13267"
       style="fill:#000000;fill-opacity:1;fill-rule:nonzero;stroke:none;stroke-width:0.35277778"
       id="path1892"
       inkscape:connector-curvature="0" />
    <path
       d="m 142.89713,83.486363 c 0.008,-0.0469 0.18909,-0.75495 0.20426,-0.79481 0.0162,-0.0628 0.24448,-0.4565 0.49636,-0.64558 0.0864,-0.0628 0.2988,-0.22049 0.63712,-0.22049 0.0787,0 0.27551,0.008 0.43321,0.11042 -0.25189,0.0709 -0.34608,0.29139 -0.34608,0.43321 0,0.17321 0.13335,0.29104 0.31468,0.29104 0.18097,0 0.44027,-0.14922 0.44027,-0.48013 0,-0.40957 -0.43251,-0.57503 -0.83397,-0.57503 -0.40958,0 -0.76341,0.16546 -1.10984,0.55916 -0.14182,-0.48013 -0.62195,-0.55916 -0.81104,-0.55916 -0.29104,0 -0.48789,0.18133 -0.61348,0.40182 -0.18132,0.30727 -0.29174,0.76341 -0.29174,0.80257 0,0.10265 0.11042,0.10265 0.13405,0.10265 0.11042,0 0.11818,-0.0236 0.17322,-0.236 0.11782,-0.48049 0.26775,-0.85055 0.57467,-0.85055 0.20461,0 0.25965,0.17321 0.25965,0.38594 0,0.14958 -0.0709,0.44097 -0.12595,0.65334 -0.0554,0.21273 -0.1337,0.53517 -0.17321,0.70873 l -0.25188,1.00718 c -0.0314,0.10231 -0.079,0.29916 -0.079,0.32279 0,0.17322 0.14182,0.25189 0.26812,0.25189 0.11782,0 0.27551,-0.0709 0.33831,-0.2279 0.0155,-0.0476 0.10266,-0.3937 0.14958,-0.59055 l 0.21272,-0.85054"
       style="fill:#000000;fill-opacity:1;fill-rule:nonzero;stroke:none;stroke-width:0.35277778"
       id="path1894"
       inkscape:connector-curvature="0" />
    <path
       d="m 128.41284,35.705892 c 0,-0.0336 0,-0.0562 -0.19127,-0.24803 -1.40836,-1.41937 -1.7694,-3.54927 -1.7694,-5.2735 0,-1.96004 0.42828,-3.92077 1.81459,-5.32977 0.14608,-0.13511 0.14608,-0.15769 0.14608,-0.1912 0,-0.0787 -0.0447,-0.11289 -0.11246,-0.11289 -0.113,0 -1.12667,0.76658 -1.79144,2.19745 -0.57493,1.23931 -0.70997,2.4899 -0.70997,3.43641 0,0.87912 0.12404,2.24236 0.74359,3.51567 0.67578,1.38632 1.64482,2.11886 1.75782,2.11886 0.0678,0 0.11246,-0.0342 0.11246,-0.113"
       style="fill:#000000;fill-opacity:1;fill-rule:nonzero;stroke:none;stroke-width:0.35277778"
       id="path1896"
       inkscape:connector-curvature="0" />
    <path
       d="m 133.26079,28.742552 c -0.20285,-0.41698 -0.52974,-0.72107 -1.03685,-0.72107 -1.31851,0 -2.7153,1.65629 -2.7153,3.30129 0,1.05929 0.61958,1.80291 1.49821,1.80291 0.22546,0 0.78878,-0.0452 1.46512,-0.84505 0.0899,0.47297 0.48454,0.84505 1.02528,0.84505 0.39466,0 0.65374,-0.25908 0.83397,-0.61959 0.19128,-0.40569 0.33793,-1.09301 0.33793,-1.11559 0,-0.11324 -0.10143,-0.11324 -0.13508,-0.11324 -0.113,0 -0.124,0.0455 -0.15762,0.20285 -0.19185,0.73275 -0.39469,1.39749 -0.85662,1.39749 -0.30427,0 -0.33789,-0.2927 -0.33789,-0.51812 0,-0.24804 0.0226,-0.33789 0.14665,-0.83386 0.12347,-0.47308 0.14605,-0.58597 0.24747,-1.01424 l 0.4057,-1.57762 c 0.0788,-0.31538 0.0788,-0.33796 0.0788,-0.38312 0,-0.1912 -0.13508,-0.30444 -0.32688,-0.30444 -0.27009,0 -0.43931,0.248 -0.47293,0.49635 z m -0.73258,2.91783 c -0.0562,0.20299 -0.0562,0.2256 -0.22546,0.41741 -0.49551,0.61958 -0.95744,0.79981 -1.27328,0.79981 -0.56335,0 -0.72101,-0.61954 -0.72101,-1.05886 0,-0.56405 0.3605,-1.94977 0.61958,-2.46764 0.34946,-0.66499 0.85658,-1.08233 1.30747,-1.08233 0.73201,0 0.89023,0.92463 0.89023,0.99166 0,0.0677 -0.0226,0.13582 -0.0342,0.19191 l -0.56333,2.20804"
       style="fill:#000000;fill-opacity:1;fill-rule:nonzero;stroke:none;stroke-width:0.35277778"
       id="path1898"
       inkscape:connector-curvature="0" />
    <path
       d="m 137.62144,29.688702 c 0,-0.21272 -0.0159,-0.22048 -0.23636,-0.22048 -0.50342,0.49636 -1.21995,0.50377 -1.54242,0.50377 v 0.28363 c 0.18852,0 0.70845,0 1.14095,-0.22049 v 4.01437 c 0,0.25961 0,0.36216 -0.78704,0.36216 h -0.29933 v 0.28331 c 0.1422,-0.008 1.11001,-0.0314 1.40105,-0.0314 0.24448,0 1.23614,0.0237 1.409,0.0314 v -0.28331 h -0.29881 c -0.78704,0 -0.78704,-0.10255 -0.78704,-0.36216 v -4.3608"
       style="fill:#000000;fill-opacity:1;fill-rule:nonzero;stroke:none;stroke-width:0.35277778"
       id="path1900"
       inkscape:connector-curvature="0" />
    <path
       d="m 142.31656,32.990602 c 0,-0.74412 -0.28152,-1.18343 -0.72143,-1.18343 -0.37148,0 -0.5969,0.28166 -0.5969,0.5975 0,0.30427 0.22542,0.59697 0.5969,0.59697 0.13546,0 0.28186,-0.0452 0.39475,-0.14661 0.0335,-0.0226 0.0452,-0.0336 0.0561,-0.0336 0.0116,0 0.0226,0.011 0.0226,0.16919 0,0.83344 -0.39405,1.50978 -0.76623,1.88133 -0.12383,0.124 -0.12383,0.14661 -0.12383,0.18023 0,0.0794 0.0561,0.12404 0.11289,0.12404 0.12348,0 1.02518,-0.86762 1.02518,-2.1856"
       style="fill:#000000;fill-opacity:1;fill-rule:nonzero;stroke:none;stroke-width:0.35277778"
       id="path1902"
       inkscape:connector-curvature="0" />
    <path
       d="m 149.24158,28.742552 c -0.20284,-0.41698 -0.52952,-0.72107 -1.03681,-0.72107 -1.31833,0 -2.71533,1.65629 -2.71533,3.30129 0,1.05929 0.61948,1.80291 1.49825,1.80291 0.22542,0 0.78881,-0.0452 1.46508,-0.84505 0.09,0.47297 0.48472,0.84505 1.02517,0.84505 0.39476,0 0.65405,-0.25908 0.83397,-0.61959 0.19156,-0.40569 0.33796,-1.09301 0.33796,-1.11559 0,-0.11324 -0.10124,-0.11324 -0.13511,-0.11324 -0.11289,0 -0.12383,0.0455 -0.15734,0.20285 -0.19191,0.73275 -0.39476,1.39749 -0.8569,1.39749 -0.30409,0 -0.33761,-0.2927 -0.33761,-0.51812 0,-0.24804 0.0226,-0.33789 0.14641,-0.83386 0.12347,-0.47308 0.14605,-0.58597 0.24765,-1.01424 l 0.40569,-1.57762 c 0.0787,-0.31538 0.0787,-0.33796 0.0787,-0.38312 0,-0.1912 -0.13511,-0.30444 -0.32667,-0.30444 -0.27023,0 -0.43956,0.248 -0.47308,0.49635 z m -0.73236,2.91783 c -0.0564,0.20299 -0.0564,0.2256 -0.22578,0.41741 -0.4953,0.61958 -0.95744,0.79981 -1.27318,0.79981 -0.56338,0 -0.72107,-0.61954 -0.72107,-1.05886 0,-0.56405 0.36054,-1.94977 0.61983,-2.46764 0.34925,-0.66499 0.85654,-1.08233 1.30739,-1.08233 0.73202,0 0.89006,0.92463 0.89006,0.99166 0,0.0677 -0.0226,0.13582 -0.0342,0.19191 l -0.56303,2.20804"
       style="fill:#000000;fill-opacity:1;fill-rule:nonzero;stroke:none;stroke-width:0.35277778"
       id="path1904"
       inkscape:connector-curvature="0" />
    <path
       d="m 154.97528,33.262382 h -0.26741 c -0.0236,0.17307 -0.1023,0.63775 -0.20425,0.71656 -0.0635,0.0469 -0.66922,0.0469 -0.77964,0.0469 h -1.44851 c 0.82691,-0.73201 1.10243,-0.9525 1.57445,-1.32235 0.58244,-0.46412 1.12536,-0.9525 1.12536,-1.69993 0,-0.9525 -0.83397,-1.53529 -1.8415,-1.53529 -0.97614,0 -1.63724,0.68474 -1.63724,1.40899 0,0.40146 0.33867,0.44098 0.41698,0.44098 0.18874,0 0.41699,-0.13406 0.41699,-0.41734 0,-0.14146 -0.055,-0.41734 -0.46391,-0.41734 0.24342,-0.5588 0.77929,-0.73201 1.14935,-0.73201 0.78705,0 1.19592,0.61419 1.19592,1.25201 0,0.68474 -0.48789,1.22752 -0.73978,1.51084 l -1.89723,1.8736 c -0.0783,0.0711 -0.0783,0.0865 -0.0783,0.30702 h 3.24273 l 0.23601,-1.43259"
       style="fill:#000000;fill-opacity:1;fill-rule:nonzero;stroke:none;stroke-width:0.35277778"
       id="path1906"
       inkscape:connector-curvature="0" />
    <path
       d="m 159.30175,30.184362 c 0,-0.87877 -0.12383,-2.24191 -0.74366,-3.51508 -0.67627,-1.38642 -1.64535,-2.11878 -1.75754,-2.11878 -0.0681,0 -0.11324,0.0452 -0.11324,0.11289 0,0.0335 0,0.0561 0.21449,0.25893 1.10419,1.11584 1.74625,2.90725 1.74625,5.26204 0,1.92708 -0.41663,3.91033 -1.81398,5.33026 -0.14676,0.13504 -0.14676,0.15765 -0.14676,0.19127 0,0.0678 0.0452,0.113 0.11324,0.113 0.11219,0 1.12642,-0.76673 1.79141,-2.1977 0.57432,-1.23913 0.70979,-2.48998 0.70979,-3.43683"
       style="fill:#000000;fill-opacity:1;fill-rule:nonzero;stroke:none;stroke-width:0.35277778"
       id="path1908"
       inkscape:connector-curvature="0" />
    <path
       d="m 34.629393,21.9526 c 0,-0.0336 0,-0.0562 -0.19127,-0.24804 -1.40836,-1.41936 -1.7694,-3.54926 -1.7694,-5.27346 0,-1.96014 0.42828,-3.92081 1.81459,-5.32973 0.14608,-0.13504 0.14608,-0.15762 0.14608,-0.19124 0,-0.0789 -0.0447,-0.11303 -0.11246,-0.11303 -0.113,0 -1.12667,0.76676 -1.79144,2.1977 -0.57493,1.23913 -0.70997,2.48983 -0.70997,3.4363 0,0.87916 0.12404,2.24233 0.74359,3.51564 0.67578,1.38631 1.64482,2.11886 1.75782,2.11886 0.0678,0 0.11246,-0.0341 0.11246,-0.113"
       style="fill:#000000;fill-opacity:1;fill-rule:nonzero;stroke:none;stroke-width:0.35277778"
       id="path1910"
       inkscape:connector-curvature="0" />
    <path
       d="m 37.967553,11.55229 c 0,-0.011 0,-0.12404 -0.14661,-0.12404 -0.25908,0 -1.08204,0.0904 -1.37474,0.113 -0.0904,0.011 -0.21389,0.0226 -0.21389,0.22489 0,0.13561 0.10142,0.13561 0.27012,0.13561 0.54074,0 0.56332,0.0788 0.56332,0.19128 0,0.0788 -0.10143,0.46192 -0.15762,0.69892 l -0.92386,3.6733 c -0.13504,0.56335 -0.18023,0.74358 -0.18023,1.13771 0,1.07047 0.59697,1.76942 1.43093,1.76942 1.32955,0 2.7153,-1.67901 2.7153,-3.30178 0,-1.02528 -0.59697,-1.80249 -1.49821,-1.80249 -0.51869,0 -0.98062,0.32632 -1.31851,0.67578 z m -1.05942,4.25923 c 0.0678,-0.24804 0.0678,-0.27009 0.16919,-0.39413 0.55178,-0.73254 1.0589,-0.90177 1.35216,-0.90177 0.40569,0 0.70997,0.33842 0.70997,1.05943 0,0.66477 -0.37208,1.96067 -0.57493,2.38898 -0.37207,0.75459 -0.89023,1.16028 -1.32955,1.16028 -0.38308,0 -0.75515,-0.30427 -0.75515,-1.13824 0,-0.21389 0,-0.42774 0.18023,-1.1377 l 0.24808,-1.03685"
       style="fill:#000000;fill-opacity:1;fill-rule:nonzero;stroke:none;stroke-width:0.35277778"
       id="path1912"
       inkscape:connector-curvature="0" />
    <path
       d="m 42.744383,15.93555 c 0,-0.21279 -0.0159,-0.22048 -0.23637,-0.22048 -0.50341,0.49607 -1.2199,0.5038 -1.54234,0.5038 v 0.28331 c 0.18838,0 0.70838,0 1.14088,-0.22048 v 4.0145 c 0,0.25961 0,0.36217 -0.78704,0.36217 h -0.29916 v 0.28331 c 0.14217,-0.008 1.10984,-0.0314 1.40088,-0.0314 0.24448,0 1.23613,0.0237 1.409,0.0314 v -0.28331 h -0.29881 c -0.78704,0 -0.78704,-0.10256 -0.78704,-0.36217 v -4.36065"
       style="fill:#000000;fill-opacity:1;fill-rule:nonzero;stroke:none;stroke-width:0.35277778"
       id="path1914"
       inkscape:connector-curvature="0" />
    <path
       d="m 47.439493,19.23731 c 0,-0.74412 -0.28151,-1.18343 -0.72143,-1.18343 -0.37147,0 -0.5969,0.28166 -0.5969,0.5975 0,0.30427 0.22543,0.59697 0.5969,0.59697 0.13547,0 0.28187,-0.0452 0.39476,-0.14662 0.0335,-0.0226 0.0452,-0.0336 0.0561,-0.0336 0.0117,0 0.0226,0.011 0.0226,0.1692 0,0.83343 -0.39405,1.50978 -0.76623,1.88132 -0.12383,0.12401 -0.12383,0.14662 -0.12383,0.18024 0,0.0794 0.0561,0.12404 0.11289,0.12404 0.12347,0 1.02517,-0.86763 1.02517,-2.1856"
       style="fill:#000000;fill-opacity:1;fill-rule:nonzero;stroke:none;stroke-width:0.35277778"
       id="path1916"
       inkscape:connector-curvature="0" />
    <path
       d="m 52.854633,11.55229 c 0,-0.011 0,-0.12404 -0.1464,-0.12404 -0.25929,0 -1.08197,0.0904 -1.37477,0.113 -0.0903,0.011 -0.21379,0.0226 -0.21379,0.22489 0,0.13561 0.10125,0.13561 0.26988,0.13561 0.54081,0 0.56338,0.0788 0.56338,0.19128 0,0.0788 -0.10124,0.46192 -0.15769,0.69892 l -0.92357,3.6733 c -0.13511,0.56335 -0.18027,0.74358 -0.18027,1.13771 0,1.07047 0.5969,1.76942 1.43087,1.76942 1.32962,0 2.71533,-1.67901 2.71533,-3.30178 0,-1.02528 -0.5969,-1.80249 -1.49825,-1.80249 -0.51858,0 -0.98072,0.32632 -1.31868,0.67578 z m -1.05939,4.25923 c 0.0677,-0.24804 0.0677,-0.27009 0.16934,-0.39413 0.55174,-0.73254 1.05903,-0.90177 1.35219,-0.90177 0.4057,0 0.70979,0.33842 0.70979,1.05943 0,0.66477 -0.37183,1.96067 -0.57467,2.38898 -0.37218,0.75459 -0.89041,1.16028 -1.32962,1.16028 -0.38312,0 -0.7553,-0.30427 -0.7553,-1.13824 0,-0.21389 0,-0.42774 0.18027,-1.1377 l 0.248,-1.03685"
       style="fill:#000000;fill-opacity:1;fill-rule:nonzero;stroke:none;stroke-width:0.35277778"
       id="path1918"
       inkscape:connector-curvature="0" />
    <path
       d="m 58.969333,19.50909 h -0.26741 c -0.0236,0.17307 -0.1023,0.63775 -0.20425,0.71656 -0.0635,0.0469 -0.66922,0.0469 -0.77964,0.0469 h -1.44851 c 0.82691,-0.73202 1.10243,-0.9525 1.57445,-1.32235 0.58244,-0.46412 1.12536,-0.9525 1.12536,-1.69997 0,-0.9525 -0.83397,-1.53511 -1.8415,-1.53511 -0.97614,0 -1.63724,0.6846 -1.63724,1.40889 0,0.40128 0.33867,0.44097 0.41698,0.44097 0.18874,0 0.41699,-0.13395 0.41699,-0.41727 0,-0.14167 -0.055,-0.41726 -0.46391,-0.41726 0.24342,-0.55894 0.77929,-0.73202 1.14935,-0.73202 0.78705,0 1.19592,0.61405 1.19592,1.2518 0,0.68464 -0.48789,1.22756 -0.73978,1.51088 l -1.89723,1.8736 c -0.0783,0.0711 -0.0783,0.0865 -0.0783,0.30702 h 3.24273 l 0.23601,-1.43259"
       style="fill:#000000;fill-opacity:1;fill-rule:nonzero;stroke:none;stroke-width:0.35277778"
       id="path1920"
       inkscape:connector-curvature="0" />
    <path
       d="m 63.295803,16.4311 c 0,-0.87866 -0.12383,-2.2418 -0.74366,-3.51511 -0.67627,-1.38631 -1.64535,-2.11889 -1.75754,-2.11889 -0.0681,0 -0.11324,0.0452 -0.11324,0.11303 0,0.0336 0,0.0562 0.21449,0.25904 1.10419,1.11566 1.74625,2.90714 1.74625,5.26193 0,1.92705 -0.41663,3.91029 -1.81398,5.33023 -0.14676,0.13504 -0.14676,0.15765 -0.14676,0.19127 0,0.0678 0.0452,0.113 0.11324,0.113 0.11219,0 1.12642,-0.76673 1.79141,-2.1977 0.57432,-1.23914 0.70979,-2.48984 0.70979,-3.4368"
       style="fill:#000000;fill-opacity:1;fill-rule:nonzero;stroke:none;stroke-width:0.35277778"
       id="path1922"
       inkscape:connector-curvature="0" />
    <path
       d="m 55.720957,60.081178 c 0.0455,-0.16922 0.11254,-0.45088 0.11254,-0.50711 0,-0.24804 -0.18027,-0.49555 -0.52952,-0.49555 -0.18027,0 -0.59726,0.0898 -0.74366,0.59697 -0.19121,0.70996 -0.39405,1.53239 -0.57432,2.29858 -0.0907,0.39467 -0.0907,0.54129 -0.0907,0.68737 0,0.30427 0.0339,0.29324 0.0339,0.36049 0,0.0568 -0.30374,0.74414 -0.95744,0.74414 -0.91299,0 -0.91299,-0.68737 -0.91299,-0.92439 0,-0.47294 0.13512,-1.00266 0.58597,-2.15196 0.0903,-0.22542 0.20284,-0.49607 0.20284,-0.68735 0,-0.65373 -0.65369,-1.01423 -1.27317,-1.01423 -1.19451,0 -1.75789,1.53236 -1.75789,1.75782 0,0.15765 0.16933,0.15765 0.27058,0.15765 0.13511,0 0.21378,0 0.25894,-0.14608 0.37218,-1.2507 0.98037,-1.3637 1.16064,-1.3637 0.0677,0 0.19155,0 0.19155,0.23647 0,0.25961 -0.11218,0.5413 -0.248,0.8902 -0.43921,1.09308 -0.60854,1.64539 -0.60854,2.11834 0,1.23968 1.08197,1.53292 2.05105,1.53292 0.22542,0 0.74366,0 1.26189,-0.63114 0.30409,0.3831 0.81138,0.63114 1.69051,0.63114 0.67592,0 1.27317,-0.32686 1.7914,-1.3185 0.45085,-0.84501 0.79975,-2.26496 0.79975,-2.85089 0,-1.02528 -0.75459,-1.02528 -0.76623,-1.02528 -0.42828,0 -0.85584,0.45036 -0.85584,0.85606 0,0.31584 0.23636,0.45088 0.33796,0.50711 0.43921,0.25908 0.56338,0.46193 0.56338,0.70997 0,0.16923 -0.28186,1.23968 -0.63147,1.85925 -0.31503,0.56334 -0.67557,0.85659 -1.16028,0.85659 -0.81139,0 -0.82268,-0.66477 -0.82268,-0.89021 0,-0.29325 0.0452,-0.46192 0.18062,-1.02581 0.079,-0.32632 0.21378,-0.87864 0.28187,-1.13771 l 0.15734,-0.63116"
       style="fill:#000000;fill-opacity:1;fill-rule:nonzero;stroke:none;stroke-width:0.35277778"
       id="path1924"
       inkscape:connector-curvature="0" />
  </g>
</svg>
