<?xml version="1.0" encoding="UTF-8" standalone="no"?>
<!-- Created with Inkscape (http://www.inkscape.org/) -->

<svg
   xmlns:osb="http://www.openswatchbook.org/uri/2009/osb"
   xmlns:dc="http://purl.org/dc/elements/1.1/"
   xmlns:cc="http://creativecommons.org/ns#"
   xmlns:rdf="http://www.w3.org/1999/02/22-rdf-syntax-ns#"
   xmlns:svg="http://www.w3.org/2000/svg"
   xmlns="http://www.w3.org/2000/svg"
   xmlns:xlink="http://www.w3.org/1999/xlink"
   xmlns:sodipodi="http://sodipodi.sourceforge.net/DTD/sodipodi-0.dtd"
   xmlns:inkscape="http://www.inkscape.org/namespaces/inkscape"
   width="210mm"
   height="297mm"
   viewBox="0 0 210 297"
   version="1.1"
   id="svg8"
   inkscape:version="0.92.2 5c3e80d, 2017-08-06"
   sodipodi:docname="haploid-mixture-UG-fixed-w.svg">
  <defs
     id="defs2">
    <marker
       inkscape:stockid="Arrow1Lend"
       orient="auto"
       refY="0.0"
       refX="0.0"
       id="marker1492"
       style="overflow:visible;"
       inkscape:isstock="true">
      <path
         id="path1490"
         d="M 0.0,0.0 L 5.0,-5.0 L -12.5,0.0 L 5.0,5.0 L 0.0,0.0 z "
         style="fill-rule:evenodd;stroke:#000000;stroke-width:1pt;stroke-opacity:1;fill:#000000;fill-opacity:1"
         transform="scale(0.8) rotate(180) translate(12.5,0)" />
    </marker>
    <marker
       inkscape:stockid="Arrow1Lend"
       orient="auto"
       refY="0.0"
       refX="0.0"
       id="Arrow1Lend"
       style="overflow:visible;"
       inkscape:isstock="true">
      <path
         id="path837"
         d="M 0.0,0.0 L 5.0,-5.0 L -12.5,0.0 L 5.0,5.0 L 0.0,0.0 z "
         style="fill-rule:evenodd;stroke:#000000;stroke-width:1pt;stroke-opacity:1;fill:#000000;fill-opacity:1"
         transform="scale(0.8) rotate(180) translate(12.5,0)" />
    </marker>
    <linearGradient
       id="linearGradient4532"
       osb:paint="solid">
      <stop
         style="stop-color:#000003;stop-opacity:1;"
         offset="0"
         id="stop4530" />
    </linearGradient>
    <linearGradient
       inkscape:collect="always"
       xlink:href="#linearGradient4532"
       id="linearGradient4538"
       gradientUnits="userSpaceOnUse"
       gradientTransform="matrix(0.38254802,0,0,0.38254802,50.821322,91.985433)"
       x1="64.571804"
       y1="71.424515"
       x2="100.06623"
       y2="71.424515" />
    <linearGradient
       inkscape:collect="always"
       xlink:href="#linearGradient4532"
       id="linearGradient4542"
       gradientUnits="userSpaceOnUse"
       gradientTransform="matrix(0.38254802,0,0,0.38254802,100.88534,54.52472)"
       x1="64.571804"
       y1="71.424515"
       x2="100.06623"
       y2="71.424515" />
    <linearGradient
       inkscape:collect="always"
       xlink:href="#linearGradient4532"
       id="linearGradient4546"
       gradientUnits="userSpaceOnUse"
       gradientTransform="matrix(0.38254802,0,0,0.38254802,118.86627,19.77968)"
       x1="64.571804"
       y1="71.424515"
       x2="100.06623"
       y2="71.424515" />
    <linearGradient
       inkscape:collect="always"
       xlink:href="#linearGradient4532"
       id="linearGradient4552"
       gradientUnits="userSpaceOnUse"
       gradientTransform="matrix(0.38254802,0,0,0.38254802,50.694683,29.289326)"
       x1="64.571804"
       y1="71.424515"
       x2="100.06623"
       y2="71.424515" />
    <linearGradient
       inkscape:collect="always"
       xlink:href="#linearGradient4532"
       id="linearGradient4556"
       gradientUnits="userSpaceOnUse"
       gradientTransform="matrix(0.38254802,0,0,0.38254802,83.962743,125.19132)"
       x1="64.571804"
       y1="71.424515"
       x2="100.06623"
       y2="71.424515" />
    <clipPath
       id="clipPath1659"
       clipPathUnits="userSpaceOnUse">
      <path
         inkscape:connector-curvature="0"
         id="path1657"
         d="m 0.162,0.306 h 126 v 268 h -126 z" />
    </clipPath>
    <clipPath
       id="clipPath1842"
       clipPathUnits="userSpaceOnUse">
      <path
         inkscape:connector-curvature="0"
         id="path1840"
         d="m 0.558,0.432 h 169 v 358 h -169 z" />
    </clipPath>
    <clipPath
       id="clipPath5195"
       clipPathUnits="userSpaceOnUse">
      <path
         inkscape:connector-curvature="0"
         id="path5193"
         d="M 0.588586,0.45 H 187.58859 v 33 H 0.588586 Z" />
    </clipPath>
  </defs>
  <sodipodi:namedview
     id="base"
     pagecolor="#ffffff"
     bordercolor="#666666"
     borderopacity="1.0"
     inkscape:pageopacity="0.0"
     inkscape:pageshadow="2"
     inkscape:zoom="0.70000001"
     inkscape:cx="459.15296"
     inkscape:cy="713.54318"
     inkscape:document-units="mm"
     inkscape:current-layer="layer1"
     showgrid="false"
     showguides="true"
     inkscape:guide-bbox="true"
     inkscape:window-width="1440"
     inkscape:window-height="851"
     inkscape:window-x="0"
     inkscape:window-y="1"
     inkscape:window-maximized="1" />
  <metadata
     id="metadata5">
    <rdf:RDF>
      <cc:Work
         rdf:about="">
        <dc:format>image/svg+xml</dc:format>
        <dc:type
           rdf:resource="http://purl.org/dc/dcmitype/StillImage" />
        <dc:title />
      </cc:Work>
    </rdf:RDF>
  </metadata>
  <g
     inkscape:label="Layer 1"
     inkscape:groupmode="layer"
     id="layer1">
    <path
       style="fill:none;fill-rule:evenodd;stroke:#000000;stroke-width:0.43788543;stroke-linecap:butt;stroke-linejoin:miter;stroke-miterlimit:4;stroke-dasharray:none;stroke-opacity:1"
       d="M 86.051195,117.01308 132.44284,82.37476"
       id="path2425"
       inkscape:connector-curvature="0" />
    <path
       style="fill:none;fill-rule:evenodd;stroke:#000000;stroke-width:0.42333332;stroke-linecap:butt;stroke-linejoin:miter;stroke-miterlimit:4;stroke-dasharray:none;stroke-opacity:1"
       d="m 83.233494,120.33706 27.585996,27.58599"
       id="path1548"
       inkscape:connector-curvature="0" />
    <path
       style="fill:none;fill-rule:evenodd;stroke:#000000;stroke-width:0.43867916;stroke-linecap:butt;stroke-linejoin:miter;stroke-miterlimit:4;stroke-dasharray:none;stroke-opacity:1"
       d="m 132.43999,82.379002 -15.9753,66.423628"
       id="path1356"
       inkscape:connector-curvature="0" />
    <path
       style="fill:none;fill-rule:evenodd;stroke:#000000;stroke-width:0.43047708;stroke-linecap:butt;stroke-linejoin:miter;stroke-miterlimit:4;stroke-dasharray:none;stroke-opacity:1"
       d="M 82.500446,61.533402 81.911372,117.27611"
       id="path1236"
       inkscape:connector-curvature="0" />
    <path
       style="fill:none;fill-rule:evenodd;stroke:#000000;stroke-width:0.44291249;stroke-linecap:butt;stroke-linejoin:miter;stroke-miterlimit:4;stroke-dasharray:none;stroke-opacity:1"
       d="M 150.09266,48.439339 132.43999,82.379002"
       id="path1176"
       inkscape:connector-curvature="0" />
    <circle
       r="6.3390927"
       cy="119.3087"
       cx="82.312317"
       id="circle4536"
       style="fill:#ffffff;fill-opacity:1;stroke:url(#linearGradient4538);stroke-width:0.5291667;stroke-miterlimit:4;stroke-dasharray:none;stroke-dashoffset:0;stroke-opacity:1" />
    <circle
       style="fill:#ffffff;fill-opacity:1;stroke:url(#linearGradient4542);stroke-width:0.5291667;stroke-miterlimit:4;stroke-dasharray:none;stroke-dashoffset:0;stroke-opacity:1"
       id="circle4540"
       cx="132.3763"
       cy="81.84803"
       r="6.3390927" />
    <circle
       r="6.3390927"
       cy="47.102989"
       cx="150.35722"
       id="circle4544"
       style="fill:#dcdcdc;fill-opacity:1;stroke:url(#linearGradient4546);stroke-width:0.5291667;stroke-miterlimit:4;stroke-dasharray:none;stroke-dashoffset:0;stroke-opacity:1" />
    <circle
       style="fill:#dcdcdc;fill-opacity:1;stroke:url(#linearGradient4552);stroke-width:0.5291667;stroke-miterlimit:4;stroke-dasharray:none;stroke-dashoffset:0;stroke-opacity:1"
       id="circle4550"
       cx="82.185677"
       cy="56.612637"
       r="6.3390927" />
    <circle
       style="fill:#000000;fill-opacity:1;stroke:url(#linearGradient4556);stroke-width:0.5291667;stroke-miterlimit:4;stroke-dasharray:none;stroke-dashoffset:0;stroke-opacity:1"
       id="circle4554"
       cx="115.45372"
       cy="152.5146"
       r="6.3390927" />
    <rect
       style="fill:none;fill-opacity:0.98431373;stroke:#040404;stroke-width:2.35299993;stroke-miterlimit:4;stroke-dasharray:none;stroke-dashoffset:0;stroke-opacity:0"
       id="rect4560"
       width="47.573978"
       height="8.5526247"
       x="127.10749"
       y="127.55112" />
    <rect
       style="opacity:1;fill:none;fill-opacity:1;stroke:#000000;stroke-width:0.5505479;stroke-miterlimit:4;stroke-dasharray:none;stroke-dashoffset:0;stroke-opacity:1"
       id="rect4562"
       width="112.16905"
       height="80.715393"
       x="40.061752"
       y="101.37481" />
    <rect
       y="60.848064"
       x="103.02716"
       height="144.59953"
       width="89.822472"
       id="rect4572"
       style="opacity:1;fill:none;fill-opacity:1;stroke:#000000;stroke-width:0.73532557;stroke-miterlimit:4;stroke-dasharray:none;stroke-dashoffset:0;stroke-opacity:1" />
    <path
       d="m 129.22594,151.53014 -0.9465,-2.24226 c -0.0335,-0.09 -0.0564,-0.13511 -0.0564,-0.14605 0,-0.0681 0.19192,-0.28187 0.66499,-0.32702 0.11289,-0.0116 0.22543,-0.0226 0.22543,-0.21449 0,-0.13512 -0.13512,-0.13512 -0.16934,-0.13512 -0.46178,0 -0.9465,0.0339 -1.41922,0.0339 -0.28187,0 -0.98072,-0.0339 -1.26224,-0.0339 -0.0681,0 -0.20285,0 -0.20285,0.22543 0,0.12418 0.11289,0.12418 0.25894,0.12418 0.67628,0 0.74401,0.11253 0.8449,0.36054 l 1.33033,3.1436 -2.37808,2.55799 -0.14605,0.12347 c -0.55245,0.59761 -1.08197,0.77788 -1.65629,0.81139 -0.14675,0.0116 -0.248,0.0116 -0.248,0.22543 0,0.0116 0,0.12417 0.1464,0.12417 0.33796,0 0.71014,-0.0335 1.05904,-0.0335 0.41734,0 0.85654,0.0335 1.26224,0.0335 0.067,0 0.20285,0 0.20285,-0.22542 0,-0.11254 -0.11289,-0.12418 -0.13582,-0.12418 -0.10125,-0.0109 -0.45015,-0.0335 -0.45015,-0.3489 0,-0.18026 0.16863,-0.36089 0.3041,-0.50694 l 1.14935,-1.21708 1.01423,-1.10419 1.13771,2.69275 c 0.0452,0.12382 0.0564,0.13546 0.0564,0.15769 0,0.0903 -0.21414,0.28222 -0.65335,0.32667 -0.12418,0.0116 -0.22542,0.0226 -0.22542,0.21449 0,0.13511 0.12417,0.13511 0.16933,0.13511 0.31503,0 1.10384,-0.0335 1.41922,-0.0335 0.28187,0 0.96909,0.0335 1.2506,0.0335 0.079,0 0.21449,0 0.21449,-0.21378 0,-0.13582 -0.11289,-0.13582 -0.20285,-0.13582 -0.75494,-0.0109 -0.77752,-0.0445 -0.96908,-0.4953 -0.43991,-1.0481 -1.1945,-2.80564 -1.45344,-3.48227 0.76623,-0.78881 1.9491,-2.12936 2.30963,-2.4451 0.32668,-0.27023 0.7553,-0.54081 1.43087,-0.57432 0.14676,-0.0116 0.248,-0.0116 0.248,-0.22543 0,-0.0109 0,-0.12418 -0.1464,-0.12418 -0.33796,0 -0.70943,0.0339 -1.05904,0.0339 -0.41663,0 -0.8449,-0.0339 -1.25059,-0.0339 -0.0677,0 -0.21449,0 -0.21449,0.22543 0,0.079 0.0568,0.11254 0.13546,0.12418 0.1016,0.0109 0.4505,0.0335 0.4505,0.34889 0,0.15805 -0.12347,0.30445 -0.21378,0.4057 l -1.82563,1.96074"
       style="fill:#000000;fill-opacity:1;fill-rule:nonzero;stroke:none;stroke-width:0.35277778"
       id="path1844"
       inkscape:connector-curvature="0" />
    <path
       d="m 135.62498,152.93525 c 0,-0.12629 -0.0949,-0.29951 -0.31468,-0.29951 -0.21308,0 -0.44097,0.20497 -0.44097,0.43321 0,0.13335 0.1023,0.29881 0.31468,0.29881 0.22824,0 0.44097,-0.21978 0.44097,-0.43251 z m -1.60585,3.99838 c -0.0317,0.10266 -0.0709,0.19685 -0.0709,0.33091 0,0.36971 0.31467,0.66887 0.74788,0.66887 0.78705,0 1.13313,-1.08621 1.13313,-1.20439 0,-0.1023 -0.10231,-0.1023 -0.12559,-0.1023 -0.11007,0 -0.11854,0.0473 -0.14993,0.1337 -0.18063,0.62971 -0.52741,0.9525 -0.83397,0.9525 -0.15769,0 -0.19685,-0.1023 -0.19685,-0.27552 0,-0.18062 0.0547,-0.33055 0.12594,-0.50377 0.0787,-0.21237 0.1651,-0.42509 0.25188,-0.62935 0.0709,-0.18909 0.35419,-0.90523 0.38559,-1.00013 0.024,-0.0787 0.0469,-0.17286 0.0469,-0.25188 0,-0.36971 -0.31468,-0.66922 -0.74754,-0.66922 -0.77928,0 -1.14158,1.07104 -1.14158,1.20439 0,0.10265 0.11042,0.10265 0.13405,0.10265 0.11042,0 0.11818,-0.0392 0.14182,-0.12629 0.20426,-0.67698 0.55104,-0.96026 0.84208,-0.96026 0.12559,0 0.19685,0.0635 0.19685,0.27587 0,0.18133 -0.0473,0.29916 -0.24412,0.78705 l -0.49566,1.26717"
       style="fill:#000000;fill-opacity:1;fill-rule:nonzero;stroke:none;stroke-width:0.35277778"
       id="path1846"
       inkscape:connector-curvature="0" />
    <path
       d="m 137.94555,157.72915 c 0,0.4325 -0.079,0.93627 -0.61419,1.44039 -0.0314,0.0314 -0.055,0.055 -0.055,0.0942 0,0.055 0.0635,0.11007 0.11007,0.11007 0.11042,0 0.77964,-0.62936 0.77964,-1.56634 0,-0.48789 -0.18909,-0.85795 -0.5514,-0.85795 -0.25964,0 -0.44873,0.20461 -0.44873,0.44873 0,0.25188 0.18168,0.4565 0.4572,0.4565 0.18838,0 0.31468,-0.12559 0.32244,-0.12559"
       style="fill:#000000;fill-opacity:1;fill-rule:nonzero;stroke:none;stroke-width:0.35277778"
       id="path1848"
       inkscape:connector-curvature="0" />
    <path
       d="m 140.78047,156.26442 c 0.008,-0.0469 0.18909,-0.75495 0.20426,-0.79481 0.0162,-0.0628 0.24448,-0.4565 0.49636,-0.64559 0.0864,-0.0628 0.2988,-0.22048 0.63712,-0.22048 0.0787,0 0.27551,0.008 0.43321,0.11042 -0.25189,0.0709 -0.34608,0.29139 -0.34608,0.43321 0,0.17321 0.13335,0.29104 0.31468,0.29104 0.18097,0 0.44027,-0.14922 0.44027,-0.48013 0,-0.40958 -0.43251,-0.57503 -0.83397,-0.57503 -0.40958,0 -0.76341,0.16545 -1.10984,0.55915 -0.14182,-0.48013 -0.62195,-0.55915 -0.81104,-0.55915 -0.29104,0 -0.48789,0.18133 -0.61348,0.40182 -0.18132,0.30727 -0.29174,0.76341 -0.29174,0.80257 0,0.10265 0.11042,0.10265 0.13405,0.10265 0.11042,0 0.11818,-0.0236 0.17322,-0.236 0.11782,-0.48049 0.26775,-0.85055 0.57467,-0.85055 0.20461,0 0.25965,0.17321 0.25965,0.38594 0,0.14957 -0.0709,0.44097 -0.12595,0.65334 -0.0554,0.21273 -0.1337,0.53517 -0.17321,0.70873 l -0.25188,1.00718 c -0.0314,0.10231 -0.079,0.29916 -0.079,0.32279 0,0.17322 0.14182,0.25189 0.26812,0.25189 0.11782,0 0.27551,-0.0709 0.33831,-0.2279 0.0155,-0.0476 0.10266,-0.3937 0.14958,-0.59055 l 0.21272,-0.85054"
       style="fill:#000000;fill-opacity:1;fill-rule:nonzero;stroke:none;stroke-width:0.35277778"
       id="path1850"
       inkscape:connector-curvature="0" />
    <path
       d="m 69.941227,112.30427 c 0.0116,-0.0455 0.0342,-0.1016 0.0342,-0.16933 0,-0.1016 -0.0568,-0.1016 -0.28187,-0.1016 h -4.75509 c -0.27093,0 -0.28187,0.0116 -0.3496,0.22543 l -0.61948,2.02811 c -0.0226,0.0568 -0.0339,0.13547 -0.0339,0.15805 0,0.0113 0,0.12418 0.13512,0.12418 0.1016,0 0.12417,-0.0794 0.14675,-0.11289 0.42827,-1.32962 1.01353,-2.07328 2.77142,-2.07328 h 1.83727 l -6.2992,7.04215 c 0,0.0116 -0.0448,0.16934 -0.0448,0.20285 0,0.1016 0.079,0.1016 0.28187,0.1016 h 4.90114 c 0.27093,0 0.28187,-0.0109 0.3496,-0.22543 l 0.79975,-2.49025 c 0.0116,-0.0448 0.0452,-0.12348 0.0452,-0.16898 0,-0.0561 -0.0452,-0.12383 -0.1464,-0.12383 -0.1016,0 -0.11254,0.0451 -0.19156,0.28152 -0.496,1.53246 -1.03681,2.34385 -2.95204,2.34385 h -1.92723 l 6.29885,-7.04215"
       style="fill:#000000;fill-opacity:1;fill-rule:nonzero;stroke:none;stroke-width:0.35277778"
       id="path1852"
       inkscape:connector-curvature="0" />
    <path
       d="m 72.034257,116.50339 c 0,-0.1263 -0.0949,-0.29951 -0.31468,-0.29951 -0.21307,0 -0.44097,0.20496 -0.44097,0.43321 0,0.13335 0.10231,0.2988 0.31468,0.2988 0.22825,0 0.44097,-0.21978 0.44097,-0.4325 z m -1.60584,3.99838 c -0.0317,0.10266 -0.0709,0.19685 -0.0709,0.33091 0,0.36971 0.31468,0.66886 0.74789,0.66886 0.78704,0 1.13312,-1.0862 1.13312,-1.20438 0,-0.10231 -0.10231,-0.10231 -0.12559,-0.10231 -0.11007,0 -0.11853,0.0473 -0.14993,0.13371 -0.18062,0.6297 -0.5274,0.9525 -0.83397,0.9525 -0.15769,0 -0.19685,-0.10231 -0.19685,-0.27552 0,-0.18063 0.0547,-0.33056 0.12594,-0.50377 0.0787,-0.21237 0.1651,-0.4251 0.25189,-0.62936 0.0709,-0.18908 0.35419,-0.90522 0.38558,-1.00012 0.024,-0.0787 0.0469,-0.17286 0.0469,-0.25188 0,-0.36971 -0.31467,-0.66922 -0.74753,-0.66922 -0.77929,0 -1.14159,1.07103 -1.14159,1.20438 0,0.10266 0.11042,0.10266 0.13405,0.10266 0.11042,0 0.11818,-0.0392 0.14182,-0.1263 0.20426,-0.67698 0.55104,-0.96026 0.84208,-0.96026 0.12559,0 0.19685,0.0635 0.19685,0.27588 0,0.18132 -0.0473,0.29915 -0.24412,0.78704 l -0.49565,1.26718"
       style="fill:#000000;fill-opacity:1;fill-rule:nonzero;stroke:none;stroke-width:0.35277778"
       id="path1854"
       inkscape:connector-curvature="0" />
    <path
       d="m 45.515112,170.74922 c 0,-0.22543 -0.15822,-0.4057 -0.41727,-0.4057 -0.30427,0 -0.60854,0.29281 -0.60854,0.59726 0,0.21413 0.15819,0.40569 0.42828,0.40569 0.25908,0 0.59753,-0.25929 0.59753,-0.59725 z m -0.85658,4.23686 c 0.13504,-0.32703 0.13504,-0.3496 0.24804,-0.6537 0.0898,-0.22542 0.14605,-0.38311 0.14605,-0.5969 0,-0.50729 -0.36047,-0.92392 -0.92382,-0.92392 -1.0589,0 -1.48717,1.63371 -1.48717,1.73531 0,0.11218 0.11243,0.11218 0.13504,0.11218 0.113,0 0.124,-0.0226 0.18024,-0.20284 0.30427,-1.05869 0.75515,-1.39736 1.13827,-1.39736 0.0899,0 0.28166,0 0.28166,0.36054 0,0.23707 -0.0788,0.47343 -0.124,0.58597 -0.0904,0.29316 -0.59697,1.6002 -0.77724,2.08491 -0.113,0.29316 -0.25961,0.66464 -0.25961,0.9017 0,0.52917 0.38308,0.92393 0.92438,0.92393 1.0589,0 1.47616,-1.63407 1.47616,-1.73531 0,-0.11325 -0.10142,-0.11325 -0.1356,-0.11325 -0.11243,0 -0.11243,0.0342 -0.16867,0.20285 -0.20284,0.71014 -0.57492,1.39735 -1.14984,1.39735 -0.19128,0 -0.27009,-0.11218 -0.27009,-0.37147 0,-0.28222 0.0678,-0.43992 0.32685,-1.12713 l 0.43935,-1.18286"
       style="fill:#000000;fill-opacity:1;fill-rule:nonzero;stroke:none;stroke-width:0.35277778"
       id="path1856"
       inkscape:connector-curvature="0" />
    <path
       d="m 57.076312,174.10696 c 0.16866,0 0.38308,0 0.38308,-0.22507 0,-0.22543 -0.21442,-0.22543 -0.37208,-0.22543 h -6.74962 c -0.15766,0 -0.37151,0 -0.37151,0.22543 0,0.22507 0.21385,0.22507 0.38308,0.22507 z m 0.011,2.18616 c 0.15766,0 0.37208,0 0.37208,-0.22578 0,-0.22472 -0.21442,-0.22472 -0.38308,-0.22472 h -6.72705 c -0.16923,0 -0.38308,0 -0.38308,0.22472 0,0.22578 0.21385,0.22578 0.37151,0.22578 h 6.74962"
       style="fill:#000000;fill-opacity:1;fill-rule:nonzero;stroke:none;stroke-width:0.35277778"
       id="path1858"
       inkscape:connector-curvature="0" />
    <path
       d="m 64.501152,170.58024 c 0,-0.27058 0,-0.29281 -0.25904,-0.29281 -0.69896,0.72108 -1.69059,0.72108 -2.05109,0.72108 v 0.34925 c 0.22546,0 0.8902,0 1.47616,-0.29316 v 5.83706 c 0,0.4057 -0.0336,0.54046 -1.04785,0.54046 h -0.3605 v 0.3496 c 0.39412,-0.0335 1.37473,-0.0335 1.82562,-0.0335 0.45032,0 1.43094,0 1.82506,0.0335 v -0.3496 h -0.3605 c -1.01424,0 -1.04786,-0.12383 -1.04786,-0.54046 v -6.32142"
       style="fill:#000000;fill-opacity:1;fill-rule:nonzero;stroke:none;stroke-width:0.35277778"
       id="path1860"
       inkscape:connector-curvature="0" />
    <path
       d="m 69.120352,177.78079 c 0,-0.74437 -0.28169,-1.18357 -0.72153,-1.18357 -0.37155,0 -0.59697,0.28151 -0.59697,0.5976 0,0.3041 0.22542,0.5969 0.59697,0.5969 0.13557,0 0.28165,-0.0452 0.39465,-0.14675 0.0336,-0.0226 0.0452,-0.0335 0.0562,-0.0335 0.0116,0 0.0226,0.0109 0.0226,0.16933 0,0.83326 -0.39412,1.50954 -0.76619,1.88136 -0.12404,0.12383 -0.12404,0.14641 -0.12404,0.17992 0,0.0794 0.0562,0.12418 0.11299,0.12418 0.12348,0 1.02528,-0.86748 1.02528,-2.18546"
       style="fill:#000000;fill-opacity:1;fill-rule:nonzero;stroke:none;stroke-width:0.35277778"
       id="path1862"
       inkscape:connector-curvature="0" />
    <path
       d="m 73.970482,177.19482 c 0,-0.32702 -0.27065,-0.5976 -0.5975,-0.5976 -0.32632,0 -0.59697,0.27058 -0.59697,0.5976 0,0.32632 0.27065,0.5969 0.59697,0.5969 0.32685,0 0.5975,-0.27058 0.5975,-0.5969"
       style="fill:#000000;fill-opacity:1;fill-rule:nonzero;stroke:none;stroke-width:0.35277778"
       id="path1864"
       inkscape:connector-curvature="0" />
    <path
       d="m 78.980002,177.19482 c 0,-0.32702 -0.27058,-0.5976 -0.59761,-0.5976 -0.32632,0 -0.5969,0.27058 -0.5969,0.5976 0,0.32632 0.27058,0.5969 0.5969,0.5969 0.32703,0 0.59761,-0.27058 0.59761,-0.5969"
       style="fill:#000000;fill-opacity:1;fill-rule:nonzero;stroke:none;stroke-width:0.35277778"
       id="path1866"
       inkscape:connector-curvature="0" />
    <path
       d="m 83.989442,177.19482 c 0,-0.32702 -0.27058,-0.5976 -0.5976,-0.5976 -0.32632,0 -0.5969,0.27058 -0.5969,0.5976 0,0.32632 0.27058,0.5969 0.5969,0.5969 0.32702,0 0.5976,-0.27058 0.5976,-0.5969"
       style="fill:#000000;fill-opacity:1;fill-rule:nonzero;stroke:none;stroke-width:0.35277778"
       id="path1868"
       inkscape:connector-curvature="0" />
    <path
       d="m 89.122712,177.78079 c 0,-0.74437 -0.28152,-1.18357 -0.72143,-1.18357 -0.37147,0 -0.5969,0.28151 -0.5969,0.5976 0,0.3041 0.22543,0.5969 0.5969,0.5969 0.13547,0 0.28187,-0.0452 0.39476,-0.14675 0.0335,-0.0226 0.0451,-0.0335 0.0561,-0.0335 0.0116,0 0.0226,0.0109 0.0226,0.16933 0,0.83326 -0.39405,1.50954 -0.76623,1.88136 -0.12383,0.12383 -0.12383,0.14641 -0.12383,0.17992 0,0.0794 0.0561,0.12418 0.11289,0.12418 0.12347,0 1.02517,-0.86748 1.02517,-2.18546"
       style="fill:#000000;fill-opacity:1;fill-rule:nonzero;stroke:none;stroke-width:0.35277778"
       id="path1870"
       inkscape:connector-curvature="0" />
    <path
       d="m 92.801122,177.12709 c -0.0335,0.16898 -0.1016,0.42827 -0.1016,0.48436 0,0.20285 0.1577,0.30445 0.32703,0.30445 0.13511,0 0.33796,-0.0907 0.41663,-0.31609 0.0116,-0.0219 0.14676,-0.55174 0.21414,-0.83326 l 0.248,-1.01424 c 0.0677,-0.248 0.13547,-0.49565 0.19156,-0.75529 0.0455,-0.19121 0.13511,-0.51823 0.14605,-0.56339 0.16933,-0.3489 0.76694,-1.37478 1.83726,-1.37478 0.50659,0 0.60819,0.41734 0.60819,0.78882 0,0.6992 -0.55174,2.141 -0.73201,2.62537 -0.1016,0.25929 -0.11324,0.39476 -0.11324,0.51893 0,0.52917 0.39476,0.92393 0.92463,0.92393 1.05868,0 1.47567,-1.64571 1.47567,-1.73531 0,-0.11325 -0.1016,-0.11325 -0.13512,-0.11325 -0.11253,0 -0.11253,0.0342 -0.16933,0.20285 -0.22472,0.76623 -0.5969,1.39735 -1.14935,1.39735 -0.19121,0 -0.26987,-0.11218 -0.26987,-0.37147 0,-0.28222 0.10124,-0.5521 0.20284,-0.8001 0.21379,-0.59725 0.68721,-1.83692 0.68721,-2.47897 0,-0.7553 -0.48436,-1.20544 -1.29575,-1.20544 -1.01424,0 -1.56669,0.72108 -1.75789,0.98001 -0.0564,-0.63112 -0.51823,-0.98001 -1.03681,-0.98001 -0.51824,0 -0.73202,0.43921 -0.84526,0.64205 -0.18027,0.38312 -0.33761,1.04775 -0.33761,1.09326 0,0.11218 0.11218,0.11218 0.13476,0.11218 0.11324,0 0.12418,-0.0109 0.19191,-0.25893 0.19121,-0.79975 0.41663,-1.34127 0.82233,-1.34127 0.22542,0 0.3496,0.14676 0.3496,0.51894 0,0.23636 -0.0342,0.36054 -0.18027,0.94615 l -0.6537,2.60315"
       style="fill:#000000;fill-opacity:1;fill-rule:nonzero;stroke:none;stroke-width:0.35277778"
       id="path1872"
       inkscape:connector-curvature="0" />
    <path
       d="m 131.01199,201.17141 c -0.0336,0.16899 -0.10143,0.42828 -0.10143,0.48437 0,0.20285 0.15765,0.30445 0.32687,0.30445 0.13505,0 0.3379,-0.0907 0.41672,-0.31609 0.0226,-0.0444 0.4057,-1.57692 0.4509,-1.77977 0.0898,-0.37218 0.29269,-1.16099 0.36049,-1.46508 0.0452,-0.14676 0.3605,-0.67593 0.63114,-0.92393 0.0899,-0.0787 0.41672,-0.37218 0.90124,-0.37218 0.29326,0 0.46193,0.13582 0.4735,0.13582 -0.33846,0.0561 -0.58593,0.32632 -0.58593,0.61948 0,0.18027 0.12347,0.39405 0.42774,0.39405 0.30427,0 0.62011,-0.25894 0.62011,-0.66463 0,-0.39406 -0.3605,-0.73202 -0.93542,-0.73202 -0.73257,0 -1.22811,0.55175 -1.44253,0.86748 -0.0898,-0.50694 -0.49554,-0.86748 -1.02526,-0.86748 -0.51814,0 -0.73202,0.43921 -0.83344,0.64206 -0.20285,0.38312 -0.34947,1.05904 -0.34947,1.09326 0,0.11218 0.11245,0.11218 0.13505,0.11218 0.113,0 0.12402,-0.0109 0.19182,-0.25894 0.19127,-0.79975 0.41672,-1.34126 0.82242,-1.34126 0.19126,0 0.34946,0.0907 0.34946,0.51894 0,0.23636 -0.0342,0.36054 -0.18024,0.94615 l -0.65374,2.60314"
       style="fill:#000000;fill-opacity:1;fill-rule:nonzero;stroke:none;stroke-width:0.35277778"
       id="path1874"
       inkscape:connector-curvature="0" />
    <path
       d="m 146.29886,198.15128 c 0.16866,0 0.38308,0 0.38308,-0.22507 0,-0.22542 -0.21442,-0.22542 -0.37208,-0.22542 h -6.74962 c -0.15766,0 -0.37151,0 -0.37151,0.22542 0,0.22507 0.21385,0.22507 0.38308,0.22507 z m 0.011,2.18617 c 0.15766,0 0.37208,0 0.37208,-0.22578 0,-0.22472 -0.21442,-0.22472 -0.38308,-0.22472 h -6.72705 c -0.16923,0 -0.38308,0 -0.38308,0.22472 0,0.22578 0.21385,0.22578 0.37151,0.22578 h 6.74962"
       style="fill:#000000;fill-opacity:1;fill-rule:nonzero;stroke:none;stroke-width:0.35277778"
       id="path1876"
       inkscape:connector-curvature="0" />
    <path
       d="m 153.7237,194.62456 c 0,-0.27058 0,-0.2928 -0.25905,-0.2928 -0.69895,0.72108 -1.69058,0.72108 -2.05108,0.72108 v 0.34925 c 0.22546,0 0.8902,0 1.47616,-0.29316 v 5.83706 c 0,0.40569 -0.0336,0.54046 -1.04785,0.54046 h -0.36051 v 0.3496 c 0.39413,-0.0335 1.37474,-0.0335 1.82563,-0.0335 0.45032,0 1.43094,0 1.82506,0.0335 v -0.3496 h -0.36051 c -1.01423,0 -1.04785,-0.12383 -1.04785,-0.54046 v -6.32143"
       style="fill:#000000;fill-opacity:1;fill-rule:nonzero;stroke:none;stroke-width:0.35277778"
       id="path1878"
       inkscape:connector-curvature="0" />
    <path
       d="m 158.3429,201.82511 c 0,-0.74436 -0.28169,-1.18357 -0.72154,-1.18357 -0.37154,0 -0.59697,0.28152 -0.59697,0.59761 0,0.30409 0.22543,0.5969 0.59697,0.5969 0.13558,0 0.28166,-0.0452 0.39466,-0.14676 0.0336,-0.0226 0.0452,-0.0335 0.0562,-0.0335 0.0116,0 0.0226,0.0109 0.0226,0.16933 0,0.83326 -0.39412,1.50954 -0.7662,1.88137 -0.12403,0.12382 -0.12403,0.1464 -0.12403,0.17991 0,0.0794 0.0562,0.12418 0.11299,0.12418 0.12347,0 1.02528,-0.86748 1.02528,-2.18546"
       style="fill:#000000;fill-opacity:1;fill-rule:nonzero;stroke:none;stroke-width:0.35277778"
       id="path1880"
       inkscape:connector-curvature="0" />
    <path
       d="m 163.19303,201.23915 c 0,-0.32703 -0.27065,-0.59761 -0.5975,-0.59761 -0.32632,0 -0.59697,0.27058 -0.59697,0.59761 0,0.32632 0.27065,0.5969 0.59697,0.5969 0.32685,0 0.5975,-0.27058 0.5975,-0.5969"
       style="fill:#000000;fill-opacity:1;fill-rule:nonzero;stroke:none;stroke-width:0.35277778"
       id="path1882"
       inkscape:connector-curvature="0" />
    <path
       d="m 168.20255,201.23915 c 0,-0.32703 -0.27059,-0.59761 -0.59761,-0.59761 -0.32632,0 -0.5969,0.27058 -0.5969,0.59761 0,0.32632 0.27058,0.5969 0.5969,0.5969 0.32702,0 0.59761,-0.27058 0.59761,-0.5969"
       style="fill:#000000;fill-opacity:1;fill-rule:nonzero;stroke:none;stroke-width:0.35277778"
       id="path1884"
       inkscape:connector-curvature="0" />
    <path
       d="m 173.21199,201.23915 c 0,-0.32703 -0.27058,-0.59761 -0.59761,-0.59761 -0.32632,0 -0.5969,0.27058 -0.5969,0.59761 0,0.32632 0.27058,0.5969 0.5969,0.5969 0.32703,0 0.59761,-0.27058 0.59761,-0.5969"
       style="fill:#000000;fill-opacity:1;fill-rule:nonzero;stroke:none;stroke-width:0.35277778"
       id="path1886"
       inkscape:connector-curvature="0" />
    <path
       d="m 178.30998,201.82511 c 0,-0.74436 -0.28152,-1.18357 -0.72143,-1.18357 -0.37147,0 -0.5969,0.28152 -0.5969,0.59761 0,0.30409 0.22543,0.5969 0.5969,0.5969 0.13547,0 0.28187,-0.0452 0.39476,-0.14676 0.0335,-0.0226 0.0451,-0.0335 0.0561,-0.0335 0.0116,0 0.0226,0.0109 0.0226,0.16933 0,0.83326 -0.39405,1.50954 -0.76623,1.88137 -0.12383,0.12382 -0.12383,0.1464 -0.12383,0.17991 0,0.0794 0.0561,0.12418 0.11289,0.12418 0.12347,0 1.02517,-0.86748 1.02517,-2.18546"
       style="fill:#000000;fill-opacity:1;fill-rule:nonzero;stroke:none;stroke-width:0.35277778"
       id="path1888"
       inkscape:connector-curvature="0" />
    <path
       d="m 185.25759,194.91772 c 0.0674,-0.27058 0.1016,-0.38311 0.31538,-0.41733 0.10125,-0.0109 0.46179,-0.0109 0.68721,-0.0109 0.8001,0 2.05105,0 2.05105,1.11548 0,0.38312 -0.18062,1.16064 -0.61983,1.59985 -0.29281,0.29315 -0.89041,0.65369 -1.90394,0.65369 h -1.26224 z m 1.62242,3.08751 c 1.13806,-0.24835 2.47932,-1.03681 2.47932,-2.17522 0,-0.96909 -1.01423,-1.69016 -2.49061,-1.69016 h -3.21133 c -0.22543,0 -0.32668,0 -0.32668,0.22542 0,0.12418 0.10125,0.12418 0.31574,0.12418 0.0219,0 0.23636,0 0.42757,0.0226 0.20284,0.0226 0.30444,0.0335 0.30444,0.18027 0,0.0452 -0.0109,0.0787 -0.0448,0.21378 l -1.51024,6.0512 c -0.11254,0.43956 -0.13511,0.52917 -1.02517,0.52917 -0.20285,0 -0.30445,0 -0.30445,0.22542 0,0.12418 0.13511,0.12418 0.15769,0.12418 0.31609,0 1.1049,-0.0335 1.41993,-0.0335 0.31539,0 1.11584,0.0335 1.43122,0.0335 0.0903,0 0.22543,0 0.22543,-0.22543 0,-0.12417 -0.1016,-0.12417 -0.31539,-0.12417 -0.41733,0 -0.73272,0 -0.73272,-0.20285 0,-0.067 0.0226,-0.12383 0.0339,-0.19121 l 0.7433,-2.98591 h 1.34126 c 1.02518,0 1.22802,0.63077 1.22802,1.02517 0,0.16934 -0.0896,0.51823 -0.15769,0.77717 -0.0787,0.31609 -0.18027,0.73272 -0.18027,0.95815 0,1.21708 1.3522,1.21708 1.49896,1.21708 0.95743,0 1.35219,-1.13806 1.35219,-1.29575 0,-0.13512 -0.12417,-0.13512 -0.13582,-0.13512 -0.10124,0 -0.12347,0.0787 -0.14605,0.1577 -0.28151,0.83326 -0.76623,1.02517 -1.02587,1.02517 -0.37148,0 -0.45015,-0.248 -0.45015,-0.68721 0,-0.34961 0.067,-0.92393 0.11254,-1.28447 0.0226,-0.15839 0.0452,-0.37218 0.0452,-0.52987 0,-0.86748 -0.75529,-1.21708 -1.05939,-1.32927"
       style="fill:#000000;fill-opacity:1;fill-rule:nonzero;stroke:none;stroke-width:0.35277778"
       id="path1890"
       inkscape:connector-curvature="0" />
    <path
       d="m 146.32579,80.016083 h 1.99425 c 2.07363,0 3.49285,-1.26224 3.49285,-2.59186 0,-1.14935 -1.0361,-1.73531 -2.52377,-1.73531 h -4.33811 c -0.21413,0 -0.41698,0 -0.41698,0.32702 0,0.20285 0.15769,0.20285 0.47308,0.20285 0.23706,0 0.45085,0.0109 0.68721,0.0219 l -1.61114,6.42268 c -0.0451,0.18027 -0.0561,0.19191 -0.25894,0.21449 -0.19191,0.0109 -0.41663,0.0109 -0.5976,0.0109 -0.29281,0 -0.31539,0 -0.3489,0.0342 -0.14676,0.0674 -0.14676,0.23671 -0.14676,0.29281 0,0.0109 0,0.20284 0.24836,0.20284 0.28152,0 0.57432,-0.0226 0.85584,-0.0226 0.28187,0 0.57503,-0.0109 0.85654,-0.0109 0.29281,0 0.58597,0.0109 0.86784,0.0109 0.29245,0 0.5969,0.0226 0.87841,0.0226 0.11324,0 0.32703,0 0.32703,-0.31538 0,-0.21449 -0.13512,-0.21449 -0.46214,-0.21449 -0.23636,0 -0.45085,-0.0109 -0.68721,-0.0226 z m 0.83397,-3.59516 c 0.0451,-0.16862 0.0561,-0.18027 0.12382,-0.1912 0.1016,-0.0109 0.18027,-0.0109 0.30445,-0.0109 h 1.17193 c 0.63041,0 1.47531,0.11219 1.47531,0.88935 0,0.13582 -0.14605,1.28517 -0.56338,1.82563 -0.23636,0.30445 -0.74331,0.61983 -1.75754,0.61983 h -1.5434 l 0.78881,-3.13267"
       style="fill:#000000;fill-opacity:1;fill-rule:nonzero;stroke:none;stroke-width:0.35277778"
       id="path1892"
       inkscape:connector-curvature="0" />
    <path
       d="m 154.00964,83.486363 c 0.008,-0.0469 0.18909,-0.75495 0.20426,-0.79481 0.0162,-0.0628 0.24448,-0.4565 0.49636,-0.64558 0.0864,-0.0628 0.2988,-0.22049 0.63712,-0.22049 0.0787,0 0.27551,0.008 0.43321,0.11042 -0.25189,0.0709 -0.34608,0.29139 -0.34608,0.43321 0,0.17321 0.13335,0.29104 0.31468,0.29104 0.18097,0 0.44027,-0.14922 0.44027,-0.48013 0,-0.40957 -0.43251,-0.57503 -0.83397,-0.57503 -0.40958,0 -0.76341,0.16546 -1.10984,0.55916 -0.14182,-0.48013 -0.62195,-0.55916 -0.81104,-0.55916 -0.29104,0 -0.48789,0.18133 -0.61348,0.40182 -0.18132,0.30727 -0.29174,0.76341 -0.29174,0.80257 0,0.10265 0.11042,0.10265 0.13405,0.10265 0.11042,0 0.11818,-0.0236 0.17322,-0.236 0.11782,-0.48049 0.26775,-0.85055 0.57467,-0.85055 0.20461,0 0.25965,0.17321 0.25965,0.38594 0,0.14958 -0.0709,0.44097 -0.12595,0.65334 -0.0554,0.21273 -0.1337,0.53517 -0.17321,0.70873 l -0.25188,1.00718 c -0.0314,0.10231 -0.079,0.29916 -0.079,0.32279 0,0.17322 0.14182,0.25189 0.26812,0.25189 0.11782,0 0.27551,-0.0709 0.33831,-0.2279 0.0155,-0.0476 0.10266,-0.3937 0.14958,-0.59055 l 0.21272,-0.85054"
       style="fill:#000000;fill-opacity:1;fill-rule:nonzero;stroke:none;stroke-width:0.35277778"
       id="path1894"
       inkscape:connector-curvature="0" />
    <path
       d="m 139.52535,35.705892 c 0,-0.0336 0,-0.0562 -0.19127,-0.24803 -1.40836,-1.41937 -1.7694,-3.54927 -1.7694,-5.2735 0,-1.96004 0.42828,-3.92077 1.81459,-5.32977 0.14608,-0.13511 0.14608,-0.15769 0.14608,-0.1912 0,-0.0787 -0.0447,-0.11289 -0.11246,-0.11289 -0.113,0 -1.12667,0.76658 -1.79144,2.19745 -0.57493,1.23931 -0.70997,2.4899 -0.70997,3.43641 0,0.87912 0.12404,2.24236 0.74359,3.51567 0.67578,1.38632 1.64482,2.11886 1.75782,2.11886 0.0678,0 0.11246,-0.0342 0.11246,-0.113"
       style="fill:#000000;fill-opacity:1;fill-rule:nonzero;stroke:none;stroke-width:0.35277778"
       id="path1896"
       inkscape:connector-curvature="0" />
    <path
       d="m 144.3733,28.742552 c -0.20285,-0.41698 -0.52974,-0.72107 -1.03685,-0.72107 -1.31851,0 -2.7153,1.65629 -2.7153,3.30129 0,1.05929 0.61958,1.80291 1.49821,1.80291 0.22546,0 0.78878,-0.0452 1.46512,-0.84505 0.0899,0.47297 0.48454,0.84505 1.02528,0.84505 0.39466,0 0.65374,-0.25908 0.83397,-0.61959 0.19128,-0.40569 0.33793,-1.09301 0.33793,-1.11559 0,-0.11324 -0.10143,-0.11324 -0.13508,-0.11324 -0.113,0 -0.124,0.0455 -0.15762,0.20285 -0.19185,0.73275 -0.39469,1.39749 -0.85662,1.39749 -0.30427,0 -0.33789,-0.2927 -0.33789,-0.51812 0,-0.24804 0.0226,-0.33789 0.14665,-0.83386 0.12347,-0.47308 0.14605,-0.58597 0.24747,-1.01424 l 0.4057,-1.57762 c 0.0788,-0.31538 0.0788,-0.33796 0.0788,-0.38312 0,-0.1912 -0.13508,-0.30444 -0.32688,-0.30444 -0.27009,0 -0.43931,0.248 -0.47293,0.49635 z m -0.73258,2.91783 c -0.0562,0.20299 -0.0562,0.2256 -0.22546,0.41741 -0.49551,0.61958 -0.95744,0.79981 -1.27328,0.79981 -0.56335,0 -0.72101,-0.61954 -0.72101,-1.05886 0,-0.56405 0.3605,-1.94977 0.61958,-2.46764 0.34946,-0.66499 0.85658,-1.08233 1.30747,-1.08233 0.73201,0 0.89023,0.92463 0.89023,0.99166 0,0.0677 -0.0226,0.13582 -0.0342,0.19191 l -0.56333,2.20804"
       style="fill:#000000;fill-opacity:1;fill-rule:nonzero;stroke:none;stroke-width:0.35277778"
       id="path1898"
       inkscape:connector-curvature="0" />
    <path
       d="m 148.73395,29.688702 c 0,-0.21272 -0.0159,-0.22048 -0.23636,-0.22048 -0.50342,0.49636 -1.21995,0.50377 -1.54242,0.50377 v 0.28363 c 0.18852,0 0.70845,0 1.14095,-0.22049 v 4.01437 c 0,0.25961 0,0.36216 -0.78704,0.36216 h -0.29933 v 0.28331 c 0.1422,-0.008 1.11001,-0.0314 1.40105,-0.0314 0.24448,0 1.23614,0.0237 1.409,0.0314 v -0.28331 h -0.29881 c -0.78704,0 -0.78704,-0.10255 -0.78704,-0.36216 v -4.3608"
       style="fill:#000000;fill-opacity:1;fill-rule:nonzero;stroke:none;stroke-width:0.35277778"
       id="path1900"
       inkscape:connector-curvature="0" />
    <path
       d="m 153.42907,32.990602 c 0,-0.74412 -0.28152,-1.18343 -0.72143,-1.18343 -0.37148,0 -0.5969,0.28166 -0.5969,0.5975 0,0.30427 0.22542,0.59697 0.5969,0.59697 0.13546,0 0.28186,-0.0452 0.39475,-0.14661 0.0335,-0.0226 0.0452,-0.0336 0.0561,-0.0336 0.0116,0 0.0226,0.011 0.0226,0.16919 0,0.83344 -0.39405,1.50978 -0.76623,1.88133 -0.12383,0.124 -0.12383,0.14661 -0.12383,0.18023 0,0.0794 0.0561,0.12404 0.11289,0.12404 0.12348,0 1.02518,-0.86762 1.02518,-2.1856"
       style="fill:#000000;fill-opacity:1;fill-rule:nonzero;stroke:none;stroke-width:0.35277778"
       id="path1902"
       inkscape:connector-curvature="0" />
    <path
       d="m 160.35409,28.742552 c -0.20284,-0.41698 -0.52952,-0.72107 -1.03681,-0.72107 -1.31833,0 -2.71533,1.65629 -2.71533,3.30129 0,1.05929 0.61948,1.80291 1.49825,1.80291 0.22542,0 0.78881,-0.0452 1.46508,-0.84505 0.09,0.47297 0.48472,0.84505 1.02517,0.84505 0.39476,0 0.65405,-0.25908 0.83397,-0.61959 0.19156,-0.40569 0.33796,-1.09301 0.33796,-1.11559 0,-0.11324 -0.10124,-0.11324 -0.13511,-0.11324 -0.11289,0 -0.12383,0.0455 -0.15734,0.20285 -0.19191,0.73275 -0.39476,1.39749 -0.8569,1.39749 -0.30409,0 -0.33761,-0.2927 -0.33761,-0.51812 0,-0.24804 0.0226,-0.33789 0.14641,-0.83386 0.12347,-0.47308 0.14605,-0.58597 0.24765,-1.01424 l 0.40569,-1.57762 c 0.0787,-0.31538 0.0787,-0.33796 0.0787,-0.38312 0,-0.1912 -0.13511,-0.30444 -0.32667,-0.30444 -0.27023,0 -0.43956,0.248 -0.47308,0.49635 z m -0.73236,2.91783 c -0.0564,0.20299 -0.0564,0.2256 -0.22578,0.41741 -0.4953,0.61958 -0.95744,0.79981 -1.27318,0.79981 -0.56338,0 -0.72107,-0.61954 -0.72107,-1.05886 0,-0.56405 0.36054,-1.94977 0.61983,-2.46764 0.34925,-0.66499 0.85654,-1.08233 1.30739,-1.08233 0.73202,0 0.89006,0.92463 0.89006,0.99166 0,0.0677 -0.0226,0.13582 -0.0342,0.19191 l -0.56303,2.20804"
       style="fill:#000000;fill-opacity:1;fill-rule:nonzero;stroke:none;stroke-width:0.35277778"
       id="path1904"
       inkscape:connector-curvature="0" />
    <path
       d="m 166.08779,33.262382 h -0.26741 c -0.0236,0.17307 -0.1023,0.63775 -0.20425,0.71656 -0.0635,0.0469 -0.66922,0.0469 -0.77964,0.0469 h -1.44851 c 0.82691,-0.73201 1.10243,-0.9525 1.57445,-1.32235 0.58244,-0.46412 1.12536,-0.9525 1.12536,-1.69993 0,-0.9525 -0.83397,-1.53529 -1.8415,-1.53529 -0.97614,0 -1.63724,0.68474 -1.63724,1.40899 0,0.40146 0.33867,0.44098 0.41698,0.44098 0.18874,0 0.41699,-0.13406 0.41699,-0.41734 0,-0.14146 -0.055,-0.41734 -0.46391,-0.41734 0.24342,-0.5588 0.77929,-0.73201 1.14935,-0.73201 0.78705,0 1.19592,0.61419 1.19592,1.25201 0,0.68474 -0.48789,1.22752 -0.73978,1.51084 l -1.89723,1.8736 c -0.0783,0.0711 -0.0783,0.0865 -0.0783,0.30702 h 3.24273 l 0.23601,-1.43259"
       style="fill:#000000;fill-opacity:1;fill-rule:nonzero;stroke:none;stroke-width:0.35277778"
       id="path1906"
       inkscape:connector-curvature="0" />
    <path
       d="m 170.41426,30.184362 c 0,-0.87877 -0.12383,-2.24191 -0.74366,-3.51508 -0.67627,-1.38642 -1.64535,-2.11878 -1.75754,-2.11878 -0.0681,0 -0.11324,0.0452 -0.11324,0.11289 0,0.0335 0,0.0561 0.21449,0.25893 1.10419,1.11584 1.74625,2.90725 1.74625,5.26204 0,1.92708 -0.41663,3.91033 -1.81398,5.33026 -0.14676,0.13504 -0.14676,0.15765 -0.14676,0.19127 0,0.0678 0.0452,0.113 0.11324,0.113 0.11219,0 1.12642,-0.76673 1.79141,-2.1977 0.57432,-1.23913 0.70979,-2.48998 0.70979,-3.43683"
       style="fill:#000000;fill-opacity:1;fill-rule:nonzero;stroke:none;stroke-width:0.35277778"
       id="path1908"
       inkscape:connector-curvature="0" />
    <g
       transform="matrix(0.35277777,0,0,-0.35277777,6.5111615,61.60875)"
       inkscape:label="tex"
       id="g5185">
      <g
         id="g5187" />
      <g
         id="g5189">
        <g
           clip-path="url(#clipPath5195)"
           id="g5191">
          <path
             inkscape:connector-curvature="0"
             id="path5197"
             style="fill:#000000;fill-opacity:1;fill-rule:nonzero;stroke:none"
             d="m 17.94799,20.1891 c 0.1281,0.4797 0.3187,1.2781 0.3187,1.4375 0,0.7031 -0.5109,1.4047 -1.5015,1.4047 -0.511,0 -1.6922,-0.2547 -2.1078,-1.6922 -0.5422,-2.0125 -1.1172,-4.3438 -1.6282,-6.5157 -0.2562,-1.1187 -0.2562,-1.5343 -0.2562,-1.9484 0,-0.8625 0.0953,-0.8312 0.0953,-1.0219 0,-0.1609 -0.8609,-2.10935 -2.71407,-2.10935 -2.587504,0 -2.587504,1.94845 -2.587504,2.62035 0,1.3406 0.38281,2.8422 1.66093,6.1 0.25625,0.639 0.575,1.4062 0.575,1.9484 0,1.8531 -1.85312,2.875 -3.60937,2.875 -3.38594,0 -4.982815,-4.3437 -4.982815,-4.9828 0,-0.4469 0.479685,-0.4469 0.767185,-0.4469 0.38282,0 0.60625,0 0.73438,0.4141 1.05469,3.5453 2.77812,3.8656 3.28906,3.8656 0.19219,0 0.54375,0 0.54375,-0.6703 0,-0.7359 -0.31875,-1.5344 -0.70312,-2.5234 -1.24532,-3.0985 -1.725,-4.6641 -1.725,-6.0047 0,-3.5141 3.06718,-4.34535 5.81406,-4.34535 0.639064,0 2.107814,0 3.576614,1.78906 0.8625,-1.08593 2.3,-1.78906 4.7921,-1.78906 1.9157,0 3.6094,0.92656 5.0782,3.73755 1.2781,2.3953 2.2672,6.4203 2.2672,8.0812 0,2.9063 -2.1391,2.9063 -2.1719,2.9063 -1.2141,0 -2.4266,-1.2766 -2.4266,-2.4266 0,-0.8953 0.6703,-1.2781 0.9578,-1.4375 1.2453,-0.7344 1.5969,-1.3094 1.5969,-2.0125 0,-0.4797 -0.7984,-3.5141 -1.7891,-5.2703 -0.8937,-1.5969 -1.9156,-2.42815 -3.289,-2.42815 -2.3,0 -2.3328,1.88435 -2.3328,2.52345 0,0.8312 0.1281,1.3094 0.5125,2.9078 0.2234,0.925 0.6062,2.4906 0.7984,3.225 l 0.4469,1.7891" />
          <path
             inkscape:connector-curvature="0"
             id="path5199"
             style="fill:#000000;fill-opacity:1;fill-rule:nonzero;stroke:none"
             d="m 58.33239,19.2953 c 0.4781,0 1.0859,0 1.0859,0.6375 0,0.6391 -0.6078,0.6391 -1.0547,0.6391 h -19.1328 c -0.4469,0 -1.0531,0 -1.0531,-0.6391 0,-0.6375 0.6062,-0.6375 1.0859,-0.6375 z m 0.0312,-6.1969 c 0.4469,0 1.0547,0 1.0547,0.6391 0,0.6375 -0.6078,0.6375 -1.0859,0.6375 h -19.0688 c -0.4797,0 -1.0859,0 -1.0859,-0.6375 0,-0.6391 0.6062,-0.6391 1.0531,-0.6391 h 19.1328" />
          <path
             inkscape:connector-curvature="0"
             id="path5201"
             style="fill:#000000;fill-opacity:1;fill-rule:nonzero;stroke:none"
             d="m 80.66049,1.184375 c 0,0.095313 0,0.159375 -0.5422,0.703125 -3.9922,4.02344 -5.0156,10.0609 -5.0156,14.9484 0,5.5563 1.214,11.1141 5.1437,15.1079 0.4141,0.3828 0.4141,0.4468 0.4141,0.5421 0,0.2235 -0.1266,0.3204 -0.3188,0.3204 -0.3203,0 -3.1937,-2.1735 -5.0781,-6.2297 -1.6297,-3.5125 -2.0125,-7.0578 -2.0125,-9.7407 0,-2.4921 0.3516,-6.3562 2.1078,-9.96559 1.9156,-3.92968 4.6625,-6.006247 4.9828,-6.006247 0.1922,0 0.3188,0.096875 0.3188,0.320312" />
          <path
             inkscape:connector-curvature="0"
             id="path5203"
             style="fill:#000000;fill-opacity:1;fill-rule:nonzero;stroke:none"
             d="m 97.18079,19.0703 c 0,2.5563 -0.1594,5.111 -1.2766,7.475 -1.4703,3.0656 -4.089,3.5766 -5.4297,3.5766 -1.9171,0 -4.2484,-0.8297 -5.5578,-3.8 -1.0234,-2.2047 -1.1828,-4.6953 -1.1828,-7.2516 0,-2.3953 0.1281,-5.2687 1.4375,-7.6969 1.3735,-2.58746 3.7047,-3.22652 5.2703,-3.22652 1.725,0 4.1532,0.67187 5.5578,3.70622 1.0219,2.2032 1.1813,4.6953 1.1813,7.2172 z M 90.44169,8.85 c -1.2453,0 -3.1297,0.79844 -3.7047,3.8641 -0.3515,1.9172 -0.3515,4.8562 -0.3515,6.7406 0,2.0437 0,4.1516 0.2547,5.8766 0.6078,3.8015 3.0031,4.089 3.8015,4.089 1.0547,0 3.1625,-0.575 3.7688,-3.7375 0.3203,-1.789 0.3203,-4.2156 0.3203,-6.2281 0,-2.3953 0,-4.5672 -0.3516,-6.6125 -0.4797,-3.03439 -2.3,-3.9922 -3.7375,-3.9922" />
          <path
             inkscape:connector-curvature="0"
             id="path5205"
             style="fill:#000000;fill-opacity:1;fill-rule:nonzero;stroke:none"
             d="m 104.5216,10.5422 c 0,0.9266 -0.767,1.6937 -1.694,1.6937 -0.925,0 -1.692,-0.7671 -1.692,-1.6937 0,-0.92501 0.767,-1.6922 1.692,-1.6922 0.927,0 1.694,0.76719 1.694,1.6922" />
          <path
             inkscape:connector-curvature="0"
             id="path5207"
             style="fill:#000000;fill-opacity:1;fill-rule:nonzero;stroke:none"
             d="m 121.6296,15.2703 c 0,3.8 -2.619,6.9953 -6.069,6.9953 -1.533,0 -2.906,-0.5109 -4.056,-1.6297 v 6.2282 c 0.639,-0.1907 1.693,-0.4141 2.715,-0.4141 3.928,0 6.164,2.9063 6.164,3.3219 0,0.1906 -0.095,0.35 -0.318,0.35 -0.033,0 -0.097,0 -0.257,-0.0953 -0.639,-0.2875 -2.203,-0.9266 -4.343,-0.9266 -1.279,0 -2.747,0.2234 -4.249,0.8953 -0.255,0.0953 -0.319,0.0953 -0.383,0.0953 -0.318,0 -0.318,-0.2562 -0.318,-0.7672 v -9.4531 c 0,-0.575 0,-0.8312 0.446,-0.8312 0.224,0 0.288,0.0953 0.416,0.2875 0.35,0.5109 1.533,2.2359 4.12,2.2359 1.661,0 2.46,-1.4687 2.714,-2.0437 0.511,-1.1829 0.575,-2.4282 0.575,-4.025 0,-1.1188 0,-3.0344 -0.765,-4.3766 -0.767,-1.24532 -1.949,-2.07501 -3.419,-2.07501 -2.331,0 -4.151,1.69221 -4.695,3.57661 0.097,-0.0313 0.192,-0.0641 0.544,-0.0641 1.053,0 1.596,0.7984 1.596,1.5656 0,0.7672 -0.543,1.5656 -1.596,1.5656 -0.447,0 -1.566,-0.2234 -1.566,-1.6937 0,-2.7469 2.205,-5.84532 5.781,-5.84532 3.705,0 6.963,3.06722 6.963,7.12342" />
          <path
             inkscape:connector-curvature="0"
             id="path5209"
             style="fill:#000000;fill-opacity:1;fill-rule:nonzero;stroke:none"
             d="m 129.6726,8.88125 c 0,2.10935 -0.798,3.35465 -2.045,3.35465 -1.053,0 -1.692,-0.7984 -1.692,-1.6937 0,-0.86251 0.639,-1.6922 1.692,-1.6922 0.384,0 0.799,0.12813 1.119,0.41563 0.095,0.06406 0.128,0.09531 0.159,0.09531 0.033,0 0.064,-0.03125 0.064,-0.47969 0,-2.3625 -1.117,-4.27969 -2.172,-5.33281 -0.351,-0.35156 -0.351,-0.41563 -0.351,-0.51094 0,-0.225 0.159,-0.35156 0.32,-0.35156 0.35,0 2.906,2.45937 2.906,6.19531" />
          <path
             inkscape:connector-curvature="0"
             id="path5211"
             style="fill:#000000;fill-opacity:1;fill-rule:nonzero;stroke:none"
             d="m 152.0806,19.0703 c 0,2.5563 -0.159,5.111 -1.276,7.475 -1.471,3.0656 -4.089,3.5766 -5.43,3.5766 -1.917,0 -4.248,-0.8297 -5.558,-3.8 -1.023,-2.2047 -1.183,-4.6953 -1.183,-7.2516 0,-2.3953 0.128,-5.2687 1.438,-7.6969 1.373,-2.58746 3.705,-3.22652 5.27,-3.22652 1.725,0 4.153,0.67187 5.558,3.70622 1.022,2.2032 1.181,4.6953 1.181,7.2172 z M 145.3416,8.85 c -1.245,0 -3.13,0.79844 -3.705,3.8641 -0.351,1.9172 -0.351,4.8562 -0.351,6.7406 0,2.0437 0,4.1516 0.255,5.8766 0.607,3.8015 3.003,4.089 3.801,4.089 1.055,0 3.163,-0.575 3.769,-3.7375 0.32,-1.789 0.32,-4.2156 0.32,-6.2281 0,-2.3953 0,-4.5672 -0.351,-6.6125 -0.48,-3.03439 -2.3,-3.9922 -3.738,-3.9922" />
          <path
             inkscape:connector-curvature="0"
             id="path5213"
             style="fill:#000000;fill-opacity:1;fill-rule:nonzero;stroke:none"
             d="m 159.4216,10.5422 c 0,0.9266 -0.767,1.6937 -1.694,1.6937 -0.925,0 -1.692,-0.7671 -1.692,-1.6937 0,-0.92501 0.767,-1.6922 1.692,-1.6922 0.927,0 1.694,0.76719 1.694,1.6922" />
          <path
             inkscape:connector-curvature="0"
             id="path5215"
             style="fill:#000000;fill-opacity:1;fill-rule:nonzero;stroke:none"
             d="m 176.5296,15.2703 c 0,3.8 -2.619,6.9953 -6.069,6.9953 -1.533,0 -2.906,-0.5109 -4.056,-1.6297 v 6.2282 c 0.639,-0.1907 1.693,-0.4141 2.715,-0.4141 3.928,0 6.164,2.9063 6.164,3.3219 0,0.1906 -0.095,0.35 -0.318,0.35 -0.033,0 -0.097,0 -0.257,-0.0953 -0.639,-0.2875 -2.203,-0.9266 -4.343,-0.9266 -1.279,0 -2.747,0.2234 -4.249,0.8953 -0.255,0.0953 -0.319,0.0953 -0.383,0.0953 -0.318,0 -0.318,-0.2562 -0.318,-0.7672 v -9.4531 c 0,-0.575 0,-0.8312 0.446,-0.8312 0.224,0 0.288,0.0953 0.416,0.2875 0.35,0.5109 1.533,2.2359 4.12,2.2359 1.661,0 2.46,-1.4687 2.714,-2.0437 0.511,-1.1829 0.575,-2.4282 0.575,-4.025 0,-1.1188 0,-3.0344 -0.765,-4.3766 -0.767,-1.24532 -1.949,-2.07501 -3.419,-2.07501 -2.331,0 -4.151,1.69221 -4.695,3.57661 0.097,-0.0313 0.192,-0.0641 0.544,-0.0641 1.053,0 1.596,0.7984 1.596,1.5656 0,0.7672 -0.543,1.5656 -1.596,1.5656 -0.447,0 -1.566,-0.2234 -1.566,-1.6937 0,-2.7469 2.205,-5.84532 5.781,-5.84532 3.705,0 6.963,3.06722 6.963,7.12342" />
          <path
             inkscape:connector-curvature="0"
             id="path5217"
             style="fill:#000000;fill-opacity:1;fill-rule:nonzero;stroke:none"
             d="m 187.3196,16.8359 c 0,2.4907 -0.351,6.3547 -2.108,9.9641 -1.917,3.9297 -4.664,6.0063 -4.982,6.0063 -0.193,0 -0.321,-0.1282 -0.321,-0.3204 0,-0.0953 0,-0.1593 0.608,-0.7343 3.13,-3.1625 4.95,-8.2407 4.95,-14.9157 0,-5.4625 -1.181,-11.08434 -5.142,-15.10934 -0.416,-0.38281 -0.416,-0.446872 -0.416,-0.542185 0,-0.192187 0.128,-0.320312 0.321,-0.320312 0.318,0 3.193,2.173437 5.078,6.229687 1.628,3.51255 2.012,7.05785 2.012,9.74215" />
          <g
             transform="matrix(0.1,0,0,0.1,0.588586,0.45)"
             id="g5219">
            <path
               inkscape:connector-curvature="0"
               id="path5221"
               style="fill:none;stroke:#000000;stroke-width:0.00001;stroke-linecap:butt;stroke-linejoin:miter;stroke-miterlimit:10;stroke-dasharray:none;stroke-opacity:0"
               d="m 935,165 v 0 0 0 0 0 0 0 0 0 0 0 0 0 0 0 0 0 0 0 0 0 0 0 0 0 0 0 0 0 0 0 0 0 0 0 0 0 0 0 0 0 z" />
          </g>
        </g>
      </g>
      <g
         id="g5223">
        <g
           transform="matrix(1e-6,0,0,1e-6,93.5,16.5)"
           id="g5225">
          <path
             inkscape:connector-curvature="0"
             id="path5227"
             style="fill:none;stroke:#000000;stroke-width:1;stroke-linecap:butt;stroke-linejoin:miter;stroke-miterlimit:10;stroke-dasharray:none;stroke-opacity:0"
             d="m 0,0 c 60,108 97,116 101,120 4,-4 -69,-5 3,-23 -55,-2 -6,0 11,4 C 54,52 61,34 43,84 c 7,26 60,22 23,-17 16,15 44,33 48,41 -26,-6 4,-42 -64,-61 30,61 71,23 59,29 C 77,61 34,62 65,65 65,67 66,88 105,99 98,86 68,76 83,103 77,120 70,77 51,85 c 35,-31 -1,33 34,5 16,-36 -18,-24 12,14 6,-1 22,18 -12,4 -16,-20 -4,7 -14,-30 50,41 43,-28 -6,23 -16,-20 12,11 43,-24 -37,-24 4,-3 -4,28 -21,1 4,-30 -35,-7 9,-51 -15,-23 2,22 30,-45 46,-40 14,-18 -34,-22 22,-51 5,14 21,1 26,-44 21,-13 10,-2 -40,-4 -10,-47 8,1 -27,-8 2,33 -17,11 9,-40 15,-35 4,13 1,63 -42,29 -20,24 36,37 40,15 -33,-48 2,16 -45,-45 19,34 -24,65 7,21 8,-1 -4,9 11,4 -13,-4 16,3 -34,3 10,31 64,24 48,29 C 68,85 48,49 73,43 c -24,26 -4,61 8,29 25,4 2,-5 -29,14 36,31 64,-43 2,-13 32,-3 30,46 33,49 -38,-47 18,-56 -44,-16 37,7 56,-24 77,-21 -17,13 -7,2 -18,33 -2,1 -22,-52 -21,-12 6,-31 41,-16 -1,-6 26,-57 -11,8 34,-24 -8,3 -60,8 -45,-28 -20,1 2,64 21,5 10,47 30,0 -42,12 -1,40 40,36 58,9 -22,-8 -38,6 -19,27 -40,-1 20,-23 -21,-16 -13,21 53,21 20,24 -3,-34 23,-30 -33,12 45,-24 69,-68 15,-36 2,-17 9,36 8,25 10,-26 6,-28 -1,-41 29,-15 29,11 4,42 11,10 -9,-45 1,-3 10,-55 -3,8 40,10 C 68,81 75,67 71,77 c 33,-9 12,-5 26,45 7,-40 5,-71 -7,-15 -15,-37 8,-54 21,-32 -22,46 -29,35 2,28 -60,11 -64,-4 -66,-26 0,37 65,-9 64,-23 -54,68 -31,21 -4,-5 -26,35 -1,64 -8,53 C 82,83 109,68 87,115 65,56 69,104 104,83 83,98 66,109 73,48 77,81 108,116 84,77 67,118 69,65 83,89 83,49 67,83 52,80 c 67,10 64,22 -9,3 14,29 67,23 61,18 -55,-3 5,-49 9,-11 -23,24 3,-4 -6,9 -25,-1 -42,-27 -39,8 -3,-37 33,-28 -3,-30 -16,0 0,-28 48,-4 -36,-2 6,6 -48,-7 15,7 4,22 -9,5 55,-14 31,44 -9,16 62,-40 38,-44 29,-4 -27,6 39,-30 -23,17 3,-35 65,-13 67,22 -19,-2 -51,-32 -31,-32 -29,-43 19,7 27,11 4,4 0,-39 -116,-101 z" />
        </g>
      </g>
    </g>
  </g>
</svg>
